M48
;DRILL file {KiCad (5.0.2)-1} date 2019/02/16 11:26:38
;FORMAT={-:-/ absolute / metric / decimal}
FMAT,2
METRIC,TZ
T1C0.400
T2C0.762
T3C1.016
T4C3.000
%
G90
G05
T1
X181.7Y-113.2
X186.5Y-101.9
X189.6Y-122.8
X192.8Y-119.8
X193.Y-115.
X196.5Y-121.
X197.Y-114.
X199.Y-108.
X200.1Y-119.2
X201.Y-117.
X203.3Y-110.3
X208.298Y-112.5
T2
X189.Y-110.
X189.Y-112.
X189.Y-114.
X189.Y-116.
T3
X195.Y-122.7
X201.1Y-122.7
T4
X182.Y-122.
X182.Y-103.
T0
M30
