G04 #@! TF.GenerationSoftware,KiCad,Pcbnew,(5.0.2)-1*
G04 #@! TF.CreationDate,2019-02-16T11:26:36+09:00*
G04 #@! TF.ProjectId,EEPROM,45455052-4f4d-42e6-9b69-6361645f7063,v1.0*
G04 #@! TF.SameCoordinates,Original*
G04 #@! TF.FileFunction,Copper,L1,Top*
G04 #@! TF.FilePolarity,Positive*
%FSLAX46Y46*%
G04 Gerber Fmt 4.6, Leading zero omitted, Abs format (unit mm)*
G04 Created by KiCad (PCBNEW (5.0.2)-1) date 2019/02/16 11:26:36*
%MOMM*%
%LPD*%
G01*
G04 APERTURE LIST*
G04 #@! TA.AperFunction,SMDPad,CuDef*
%ADD10R,2.200000X0.600000*%
G04 #@! TD*
G04 #@! TA.AperFunction,SMDPad,CuDef*
%ADD11R,1.049020X1.079500*%
G04 #@! TD*
G04 #@! TA.AperFunction,ComponentPad*
%ADD12O,1.800000X1.524000*%
G04 #@! TD*
G04 #@! TA.AperFunction,ComponentPad*
%ADD13C,1.524000*%
G04 #@! TD*
G04 #@! TA.AperFunction,ViaPad*
%ADD14C,0.800000*%
G04 #@! TD*
G04 #@! TA.AperFunction,ViaPad*
%ADD15C,1.000000*%
G04 #@! TD*
G04 #@! TA.AperFunction,Conductor*
%ADD16C,0.200000*%
G04 #@! TD*
G04 #@! TA.AperFunction,Conductor*
%ADD17C,0.254000*%
G04 #@! TD*
G04 APERTURE END LIST*
D10*
G04 #@! TO.P,U1,2*
G04 #@! TO.N,/ANT*
X201000000Y-111535000D03*
G04 #@! TO.P,U1,7*
G04 #@! TO.N,/RFIO*
X195600000Y-111535000D03*
G04 #@! TO.P,U1,1*
G04 #@! TO.N,/VOUT*
X201000000Y-112805000D03*
G04 #@! TO.P,U1,3*
G04 #@! TO.N,/ANT*
X201000000Y-110265000D03*
G04 #@! TO.P,U1,4*
G04 #@! TO.N,/GND*
X201000000Y-108995000D03*
G04 #@! TO.P,U1,8*
G04 #@! TO.N,/VDD*
X195600000Y-112805000D03*
G04 #@! TO.P,U1,6*
G04 #@! TO.N,/SCL*
X195600000Y-110265000D03*
G04 #@! TO.P,U1,5*
G04 #@! TO.N,/SDA*
X195600000Y-108995000D03*
G04 #@! TD*
D11*
G04 #@! TO.P,C1,2*
G04 #@! TO.N,/GND*
X196373760Y-115100000D03*
G04 #@! TO.P,C1,1*
G04 #@! TO.N,/VDD*
X194626240Y-115100000D03*
G04 #@! TD*
D12*
G04 #@! TO.P,P1,1*
G04 #@! TO.N,/SCL*
X189000000Y-116000000D03*
G04 #@! TO.P,P1,2*
G04 #@! TO.N,/SDA*
X189000000Y-114000000D03*
G04 #@! TO.P,P1,3*
G04 #@! TO.N,/VDD*
X189000000Y-112000000D03*
G04 #@! TO.P,P1,4*
G04 #@! TO.N,/GND*
X189000000Y-110000000D03*
G04 #@! TD*
D11*
G04 #@! TO.P,R1,1*
G04 #@! TO.N,/VDD*
X194426240Y-104600000D03*
G04 #@! TO.P,R1,2*
G04 #@! TO.N,/SCL*
X196173760Y-104600000D03*
G04 #@! TD*
G04 #@! TO.P,R2,1*
G04 #@! TO.N,/VDD*
X194426240Y-106600000D03*
G04 #@! TO.P,R2,2*
G04 #@! TO.N,/SDA*
X196173760Y-106600000D03*
G04 #@! TD*
G04 #@! TO.P,R3,2*
G04 #@! TO.N,/RFIO*
X198626240Y-115100000D03*
G04 #@! TO.P,R3,1*
G04 #@! TO.N,/VDD*
X200373760Y-115100000D03*
G04 #@! TD*
D13*
G04 #@! TO.P,TP1,1*
G04 #@! TO.N,/VOUT*
X201100000Y-122700000D03*
G04 #@! TD*
G04 #@! TO.P,TP2,1*
G04 #@! TO.N,/RFIO*
X195000000Y-122700000D03*
G04 #@! TD*
D11*
G04 #@! TO.P,R4,1*
G04 #@! TO.N,/VDD*
X194626240Y-119800000D03*
G04 #@! TO.P,R4,2*
G04 #@! TO.N,/VOUT*
X196373760Y-119800000D03*
G04 #@! TD*
G04 #@! TO.P,R5,2*
G04 #@! TO.N,/GND*
X194626240Y-118000000D03*
G04 #@! TO.P,R5,1*
G04 #@! TO.N,/VOUT*
X196373760Y-118000000D03*
G04 #@! TD*
D14*
G04 #@! TO.N,/GND*
X199000000Y-108000000D03*
X197000000Y-114000000D03*
X200100000Y-119200000D03*
X181700000Y-113200000D03*
X186500000Y-101900000D03*
X189600000Y-122800000D03*
G04 #@! TO.N,/VDD*
X193000000Y-115000000D03*
X201000000Y-117000000D03*
X192800000Y-119800000D03*
G04 #@! TO.N,/VOUT*
X196500000Y-121000000D03*
D15*
G04 #@! TO.N,/ANT*
X208298000Y-112500000D03*
D14*
X203300000Y-110300000D03*
G04 #@! TD*
D16*
G04 #@! TO.N,/GND*
X196373760Y-115100000D02*
X196373760Y-115626240D01*
X186500000Y-112500000D02*
X189000000Y-110000000D01*
X186500000Y-117500000D02*
X186500000Y-112500000D01*
X186800000Y-117800000D02*
X186500000Y-117500000D01*
X194200000Y-117800000D02*
X186800000Y-117800000D01*
X196373760Y-115626240D02*
X194200000Y-117800000D01*
X201000000Y-108995000D02*
X201000000Y-104000000D01*
X189000000Y-105500000D02*
X189000000Y-110000000D01*
X192500000Y-102000000D02*
X189000000Y-105500000D01*
X199000000Y-102000000D02*
X192500000Y-102000000D01*
X201000000Y-104000000D02*
X199000000Y-102000000D01*
X201000000Y-108995000D02*
X199995000Y-108995000D01*
X199995000Y-108995000D02*
X199000000Y-108000000D01*
X196373760Y-115100000D02*
X196373760Y-114626240D01*
X196373760Y-114626240D02*
X197000000Y-114000000D01*
X189000000Y-110000000D02*
X189000000Y-104400000D01*
X200100000Y-121000000D02*
X200100000Y-119200000D01*
X196900000Y-124200000D02*
X200100000Y-121000000D01*
X192300000Y-124200000D02*
X196900000Y-124200000D01*
X190900000Y-122800000D02*
X192300000Y-124200000D01*
X189600000Y-122800000D02*
X190900000Y-122800000D01*
X189000000Y-104400000D02*
X186500000Y-101900000D01*
X181700000Y-113200000D02*
X181700000Y-114900000D01*
X181700000Y-114900000D02*
X189600000Y-122800000D01*
G04 #@! TO.N,/VDD*
X189000000Y-112000000D02*
X190500000Y-112000000D01*
X190500000Y-112000000D02*
X192000000Y-110500000D01*
X192000000Y-110500000D02*
X192000000Y-109026240D01*
X192000000Y-109026240D02*
X194426240Y-106600000D01*
X194426240Y-106600000D02*
X194426240Y-104600000D01*
X194626240Y-115100000D02*
X194626240Y-113778760D01*
X194626240Y-113778760D02*
X195600000Y-112805000D01*
X194626240Y-115100000D02*
X193100000Y-115100000D01*
X193100000Y-115100000D02*
X193000000Y-115000000D01*
X201000000Y-115726240D02*
X200373760Y-115100000D01*
X201000000Y-117000000D02*
X201000000Y-115726240D01*
X192800000Y-119800000D02*
X194626240Y-119800000D01*
G04 #@! TO.N,/SCL*
X195600000Y-110265000D02*
X197235000Y-110265000D01*
X197500000Y-105926240D02*
X196173760Y-104600000D01*
X197500000Y-110000000D02*
X197500000Y-105926240D01*
X197235000Y-110265000D02*
X197500000Y-110000000D01*
X189000000Y-116000000D02*
X189500000Y-116000000D01*
X193735000Y-110265000D02*
X195600000Y-110265000D01*
X193500000Y-110500000D02*
X193735000Y-110265000D01*
X193500000Y-112000000D02*
X193500000Y-110500000D01*
X189500000Y-116000000D02*
X193500000Y-112000000D01*
G04 #@! TO.N,/SDA*
X195600000Y-108995000D02*
X195600000Y-107173760D01*
X195600000Y-107173760D02*
X196173760Y-106600000D01*
X189000000Y-114000000D02*
X190500000Y-114000000D01*
X193505000Y-108995000D02*
X195600000Y-108995000D01*
X192500000Y-110000000D02*
X193505000Y-108995000D01*
X192500000Y-112000000D02*
X192500000Y-110000000D01*
X190500000Y-114000000D02*
X192500000Y-112000000D01*
G04 #@! TO.N,/RFIO*
X195600000Y-111535000D02*
X197035000Y-111535000D01*
X198626240Y-113126240D02*
X198626240Y-115100000D01*
X197035000Y-111535000D02*
X198626240Y-113126240D01*
X198626240Y-115100000D02*
X198626240Y-115873760D01*
X198626240Y-115100000D02*
X198626240Y-120273760D01*
X196200000Y-122700000D02*
X195000000Y-122700000D01*
X198626240Y-120273760D02*
X196200000Y-122700000D01*
G04 #@! TO.N,/VOUT*
X201000000Y-112805000D02*
X201000000Y-113500000D01*
X201000000Y-113500000D02*
X202000000Y-114500000D01*
X202000000Y-114500000D02*
X202000000Y-118500000D01*
X202000000Y-118500000D02*
X201100000Y-122700000D01*
X196373760Y-118000000D02*
X196373760Y-119800000D01*
X196373760Y-119800000D02*
X196373760Y-120873760D01*
X196373760Y-120873760D02*
X196500000Y-121000000D01*
G04 #@! TO.N,/ANT*
X207631000Y-112498000D02*
X208298000Y-112498000D01*
X216901000Y-105600000D02*
X216901000Y-119400000D01*
X204431000Y-119400000D02*
X216901000Y-119400000D01*
X204429000Y-105999900D02*
X204431000Y-119400000D01*
X204831000Y-118999900D02*
X216501000Y-118999900D01*
X204829000Y-106400000D02*
X204831000Y-118999900D01*
X205231000Y-118600000D02*
X216101000Y-118600000D01*
X205229000Y-106800000D02*
X205231000Y-118600000D01*
X205631000Y-118200000D02*
X215701000Y-118200000D01*
X205629000Y-107200000D02*
X205631000Y-118200000D01*
X206031000Y-117800000D02*
X215301000Y-117800000D01*
X206029000Y-107600000D02*
X206031000Y-117800000D01*
X206431000Y-117400000D02*
X214901000Y-117400000D01*
X206429000Y-107999900D02*
X206431000Y-117400000D01*
X206831000Y-116999900D02*
X214501000Y-116999900D01*
X206829000Y-108400000D02*
X206831000Y-116999900D01*
X207231000Y-116600000D02*
X214101000Y-116600000D01*
X207229000Y-108800000D02*
X207231000Y-116600000D01*
X207631000Y-116200000D02*
X213701000Y-116200000D01*
X207631000Y-116200000D02*
X207629000Y-112499900D01*
X204029000Y-105600000D02*
X216901000Y-105600000D01*
X204429000Y-105999900D02*
X216501000Y-105999900D01*
X216501000Y-105999900D02*
X216501000Y-118999900D01*
X204829000Y-106400000D02*
X216101000Y-106400000D01*
X216101000Y-106400000D02*
X216101000Y-118600000D01*
X205229000Y-106800000D02*
X215701000Y-106800000D01*
X215701000Y-106800000D02*
X215701000Y-118200000D01*
X205629000Y-107200000D02*
X215295000Y-107202900D01*
X215295000Y-107202900D02*
X215301000Y-117800000D01*
X206029000Y-107600000D02*
X214901000Y-107600000D01*
X214901000Y-107600000D02*
X214901000Y-117400000D01*
X206429000Y-107999900D02*
X214501000Y-107999900D01*
X214501000Y-107999900D02*
X214501000Y-116999900D01*
X206829000Y-108400000D02*
X214101000Y-108400000D01*
X214101000Y-108400000D02*
X214101000Y-116600000D01*
X207229000Y-108800000D02*
X213701000Y-108800000D01*
X213701000Y-108800000D02*
X213701000Y-116200000D01*
X204029000Y-105600000D02*
X204029000Y-106937000D01*
X204029000Y-106937000D02*
X204029000Y-109900000D01*
X204029000Y-109900000D02*
X204029000Y-109971000D01*
X203300000Y-110300000D02*
X202000000Y-110300000D01*
X204029000Y-109900000D02*
X204029000Y-110671000D01*
X202700000Y-111300000D02*
X202000000Y-111300000D01*
X204029000Y-110671000D02*
X203400000Y-111300000D01*
X203400000Y-111300000D02*
X202700000Y-111300000D01*
G04 #@! TD*
D17*
G04 #@! TO.N,/GND*
G36*
X202873000Y-109356593D02*
X202735000Y-109413755D01*
X202735000Y-109280750D01*
X202576250Y-109122000D01*
X201127000Y-109122000D01*
X201127000Y-109142000D01*
X200873000Y-109142000D01*
X200873000Y-109122000D01*
X199423750Y-109122000D01*
X199265000Y-109280750D01*
X199265000Y-109421309D01*
X199354768Y-109638028D01*
X199301843Y-109717235D01*
X199252560Y-109965000D01*
X199252560Y-110565000D01*
X199301843Y-110812765D01*
X199360132Y-110900000D01*
X199301843Y-110987235D01*
X199252560Y-111235000D01*
X199252560Y-111835000D01*
X199301843Y-112082765D01*
X199360132Y-112170000D01*
X199301843Y-112257235D01*
X199252560Y-112505000D01*
X199252560Y-112740630D01*
X199156145Y-112596335D01*
X199094778Y-112555331D01*
X197605911Y-111066465D01*
X197564905Y-111005095D01*
X197499954Y-110961696D01*
X197521783Y-110957354D01*
X197764905Y-110794905D01*
X197805911Y-110733535D01*
X197968535Y-110570911D01*
X198029905Y-110529905D01*
X198192354Y-110286783D01*
X198235000Y-110072388D01*
X198235000Y-110072387D01*
X198249399Y-110000000D01*
X198235000Y-109927612D01*
X198235000Y-108568691D01*
X199265000Y-108568691D01*
X199265000Y-108709250D01*
X199423750Y-108868000D01*
X200873000Y-108868000D01*
X200873000Y-108218750D01*
X201127000Y-108218750D01*
X201127000Y-108868000D01*
X202576250Y-108868000D01*
X202735000Y-108709250D01*
X202735000Y-108568691D01*
X202638327Y-108335302D01*
X202459699Y-108156673D01*
X202226310Y-108060000D01*
X201285750Y-108060000D01*
X201127000Y-108218750D01*
X200873000Y-108218750D01*
X200714250Y-108060000D01*
X199773690Y-108060000D01*
X199540301Y-108156673D01*
X199361673Y-108335302D01*
X199265000Y-108568691D01*
X198235000Y-108568691D01*
X198235000Y-105998628D01*
X198249399Y-105926240D01*
X198192354Y-105639458D01*
X198192354Y-105639457D01*
X198029905Y-105396335D01*
X197968537Y-105355330D01*
X197345710Y-104732504D01*
X197345710Y-104060250D01*
X197296427Y-103812485D01*
X197156079Y-103602441D01*
X196946035Y-103462093D01*
X196698270Y-103412810D01*
X195649250Y-103412810D01*
X195401485Y-103462093D01*
X195300000Y-103529904D01*
X195198515Y-103462093D01*
X194950750Y-103412810D01*
X193901730Y-103412810D01*
X193653965Y-103462093D01*
X193443921Y-103602441D01*
X193303573Y-103812485D01*
X193254290Y-104060250D01*
X193254290Y-105139750D01*
X193303573Y-105387515D01*
X193443921Y-105597559D01*
X193447574Y-105600000D01*
X193443921Y-105602441D01*
X193303573Y-105812485D01*
X193254290Y-106060250D01*
X193254290Y-106732503D01*
X191531463Y-108455331D01*
X191470096Y-108496335D01*
X191429092Y-108557702D01*
X191429091Y-108557703D01*
X191307646Y-108739458D01*
X191250602Y-109026240D01*
X191265001Y-109098629D01*
X191265000Y-110195553D01*
X190274377Y-111186177D01*
X190145180Y-110992820D01*
X190109646Y-110969077D01*
X190262135Y-110830328D01*
X190492220Y-110343070D01*
X190369720Y-110127000D01*
X189127000Y-110127000D01*
X189127000Y-110147000D01*
X188873000Y-110147000D01*
X188873000Y-110127000D01*
X187630280Y-110127000D01*
X187507780Y-110343070D01*
X187737865Y-110830328D01*
X187890354Y-110969077D01*
X187854820Y-110992820D01*
X187546056Y-111454918D01*
X187437632Y-112000000D01*
X187546056Y-112545082D01*
X187850022Y-113000000D01*
X187546056Y-113454918D01*
X187437632Y-114000000D01*
X187546056Y-114545082D01*
X187850022Y-115000000D01*
X187546056Y-115454918D01*
X187437632Y-116000000D01*
X187546056Y-116545082D01*
X187854820Y-117007180D01*
X188316918Y-117315944D01*
X188724412Y-117397000D01*
X189275588Y-117397000D01*
X189592610Y-117333940D01*
X193466730Y-117333940D01*
X193466730Y-117714250D01*
X193625480Y-117873000D01*
X194499240Y-117873000D01*
X194499240Y-116984000D01*
X194340490Y-116825250D01*
X193975421Y-116825250D01*
X193742032Y-116921923D01*
X193563403Y-117100551D01*
X193466730Y-117333940D01*
X189592610Y-117333940D01*
X189683082Y-117315944D01*
X190145180Y-117007180D01*
X190453944Y-116545082D01*
X190562368Y-116000000D01*
X190558565Y-115980881D01*
X192120336Y-114419110D01*
X191965000Y-114794126D01*
X191965000Y-115205874D01*
X192122569Y-115586280D01*
X192413720Y-115877431D01*
X192794126Y-116035000D01*
X193205874Y-116035000D01*
X193516224Y-115906449D01*
X193643921Y-116097559D01*
X193853965Y-116237907D01*
X194101730Y-116287190D01*
X195150750Y-116287190D01*
X195398515Y-116237907D01*
X195488953Y-116177478D01*
X195489552Y-116178077D01*
X195722941Y-116274750D01*
X196088010Y-116274750D01*
X196246760Y-116116000D01*
X196246760Y-115227000D01*
X196226760Y-115227000D01*
X196226760Y-114973000D01*
X196246760Y-114973000D01*
X196246760Y-114084000D01*
X196088010Y-113925250D01*
X195722941Y-113925250D01*
X195489552Y-114021923D01*
X195488953Y-114022522D01*
X195448772Y-113995674D01*
X195692007Y-113752440D01*
X196700000Y-113752440D01*
X196947765Y-113703157D01*
X197157809Y-113562809D01*
X197298157Y-113352765D01*
X197347440Y-113105000D01*
X197347440Y-112886887D01*
X197891240Y-113430687D01*
X197891240Y-113954679D01*
X197853965Y-113962093D01*
X197643921Y-114102441D01*
X197503573Y-114312485D01*
X197496886Y-114346102D01*
X197436597Y-114200551D01*
X197257968Y-114021923D01*
X197024579Y-113925250D01*
X196659510Y-113925250D01*
X196500760Y-114084000D01*
X196500760Y-114973000D01*
X196520760Y-114973000D01*
X196520760Y-115227000D01*
X196500760Y-115227000D01*
X196500760Y-116116000D01*
X196659510Y-116274750D01*
X197024579Y-116274750D01*
X197257968Y-116178077D01*
X197436597Y-115999449D01*
X197496886Y-115853898D01*
X197503573Y-115887515D01*
X197643921Y-116097559D01*
X197853965Y-116237907D01*
X197891240Y-116245321D01*
X197891241Y-119969312D01*
X197545710Y-120314843D01*
X197545710Y-119260250D01*
X197496427Y-119012485D01*
X197421266Y-118900000D01*
X197496427Y-118787515D01*
X197545710Y-118539750D01*
X197545710Y-117460250D01*
X197496427Y-117212485D01*
X197356079Y-117002441D01*
X197146035Y-116862093D01*
X196898270Y-116812810D01*
X195849250Y-116812810D01*
X195601485Y-116862093D01*
X195511047Y-116922522D01*
X195510448Y-116921923D01*
X195277059Y-116825250D01*
X194911990Y-116825250D01*
X194753240Y-116984000D01*
X194753240Y-117873000D01*
X194773240Y-117873000D01*
X194773240Y-118127000D01*
X194753240Y-118127000D01*
X194753240Y-118147000D01*
X194499240Y-118147000D01*
X194499240Y-118127000D01*
X193625480Y-118127000D01*
X193466730Y-118285750D01*
X193466730Y-118666060D01*
X193563403Y-118899449D01*
X193572814Y-118908860D01*
X193503573Y-119012485D01*
X193499031Y-119035320D01*
X193386280Y-118922569D01*
X193005874Y-118765000D01*
X192594126Y-118765000D01*
X192213720Y-118922569D01*
X191922569Y-119213720D01*
X191765000Y-119594126D01*
X191765000Y-120005874D01*
X191922569Y-120386280D01*
X192213720Y-120677431D01*
X192594126Y-120835000D01*
X193005874Y-120835000D01*
X193386280Y-120677431D01*
X193499031Y-120564680D01*
X193503573Y-120587515D01*
X193643921Y-120797559D01*
X193853965Y-120937907D01*
X194101730Y-120987190D01*
X195150750Y-120987190D01*
X195398515Y-120937907D01*
X195465000Y-120893483D01*
X195465000Y-121205874D01*
X195552316Y-121416675D01*
X195277881Y-121303000D01*
X194722119Y-121303000D01*
X194208663Y-121515680D01*
X193815680Y-121908663D01*
X193603000Y-122422119D01*
X193603000Y-122977881D01*
X193815680Y-123491337D01*
X194208663Y-123884320D01*
X194722119Y-124097000D01*
X195277881Y-124097000D01*
X195791337Y-123884320D01*
X196184320Y-123491337D01*
X196201844Y-123449031D01*
X196272384Y-123435000D01*
X196272388Y-123435000D01*
X196486783Y-123392354D01*
X196729905Y-123229905D01*
X196770911Y-123168535D01*
X199094777Y-120844669D01*
X199156145Y-120803665D01*
X199318594Y-120560543D01*
X199361240Y-120346148D01*
X199375639Y-120273760D01*
X199361240Y-120201372D01*
X199361240Y-116245321D01*
X199398515Y-116237907D01*
X199500000Y-116170096D01*
X199601485Y-116237907D01*
X199849250Y-116287190D01*
X200249099Y-116287190D01*
X200122569Y-116413720D01*
X199965000Y-116794126D01*
X199965000Y-117205874D01*
X200122569Y-117586280D01*
X200413720Y-117877431D01*
X200794126Y-118035000D01*
X201205874Y-118035000D01*
X201265001Y-118010509D01*
X201265001Y-118422128D01*
X200630680Y-121382297D01*
X200308663Y-121515680D01*
X199915680Y-121908663D01*
X199703000Y-122422119D01*
X199703000Y-122977881D01*
X199915680Y-123491337D01*
X200308663Y-123884320D01*
X200822119Y-124097000D01*
X201377881Y-124097000D01*
X201891337Y-123884320D01*
X202284320Y-123491337D01*
X202497000Y-122977881D01*
X202497000Y-122422119D01*
X202284320Y-121908663D01*
X202067680Y-121692023D01*
X202689230Y-118791458D01*
X202692354Y-118786783D01*
X202719809Y-118648758D01*
X202733852Y-118583224D01*
X202733933Y-118577754D01*
X202735000Y-118572388D01*
X202735000Y-118505347D01*
X202737074Y-118364652D01*
X202735000Y-118359428D01*
X202735000Y-114572388D01*
X202749399Y-114500000D01*
X202692354Y-114213218D01*
X202692354Y-114213217D01*
X202529905Y-113970095D01*
X202468538Y-113929091D01*
X202260051Y-113720604D01*
X202347765Y-113703157D01*
X202557809Y-113562809D01*
X202698157Y-113352765D01*
X202747440Y-113105000D01*
X202747440Y-112505000D01*
X202698157Y-112257235D01*
X202639868Y-112170000D01*
X202698157Y-112082765D01*
X202707658Y-112035000D01*
X202873000Y-112035000D01*
X202873000Y-124290000D01*
X180069930Y-124290000D01*
X179894345Y-124255074D01*
X179804774Y-124195225D01*
X179744926Y-124105655D01*
X179710000Y-123930070D01*
X179710000Y-121575322D01*
X179865000Y-121575322D01*
X179865000Y-122424678D01*
X180190034Y-123209380D01*
X180790620Y-123809966D01*
X181575322Y-124135000D01*
X182424678Y-124135000D01*
X183209380Y-123809966D01*
X183809966Y-123209380D01*
X184135000Y-122424678D01*
X184135000Y-121575322D01*
X183809966Y-120790620D01*
X183209380Y-120190034D01*
X182424678Y-119865000D01*
X181575322Y-119865000D01*
X180790620Y-120190034D01*
X180190034Y-120790620D01*
X179865000Y-121575322D01*
X179710000Y-121575322D01*
X179710000Y-109656930D01*
X187507780Y-109656930D01*
X187630280Y-109873000D01*
X188873000Y-109873000D01*
X188873000Y-108761251D01*
X189127000Y-108761251D01*
X189127000Y-109873000D01*
X190369720Y-109873000D01*
X190492220Y-109656930D01*
X190262135Y-109169672D01*
X189858812Y-108802689D01*
X189345752Y-108617986D01*
X189127000Y-108761251D01*
X188873000Y-108761251D01*
X188654248Y-108617986D01*
X188141188Y-108802689D01*
X187737865Y-109169672D01*
X187507780Y-109656930D01*
X179710000Y-109656930D01*
X179710000Y-102575322D01*
X179865000Y-102575322D01*
X179865000Y-103424678D01*
X180190034Y-104209380D01*
X180790620Y-104809966D01*
X181575322Y-105135000D01*
X182424678Y-105135000D01*
X183209380Y-104809966D01*
X183809966Y-104209380D01*
X184135000Y-103424678D01*
X184135000Y-102575322D01*
X183809966Y-101790620D01*
X183209380Y-101190034D01*
X182424678Y-100865000D01*
X181575322Y-100865000D01*
X180790620Y-101190034D01*
X180190034Y-101790620D01*
X179865000Y-102575322D01*
X179710000Y-102575322D01*
X179710000Y-101069930D01*
X179744926Y-100894345D01*
X179804774Y-100804775D01*
X179894345Y-100744926D01*
X180069930Y-100710000D01*
X202873000Y-100710000D01*
X202873000Y-109356593D01*
X202873000Y-109356593D01*
G37*
X202873000Y-109356593D02*
X202735000Y-109413755D01*
X202735000Y-109280750D01*
X202576250Y-109122000D01*
X201127000Y-109122000D01*
X201127000Y-109142000D01*
X200873000Y-109142000D01*
X200873000Y-109122000D01*
X199423750Y-109122000D01*
X199265000Y-109280750D01*
X199265000Y-109421309D01*
X199354768Y-109638028D01*
X199301843Y-109717235D01*
X199252560Y-109965000D01*
X199252560Y-110565000D01*
X199301843Y-110812765D01*
X199360132Y-110900000D01*
X199301843Y-110987235D01*
X199252560Y-111235000D01*
X199252560Y-111835000D01*
X199301843Y-112082765D01*
X199360132Y-112170000D01*
X199301843Y-112257235D01*
X199252560Y-112505000D01*
X199252560Y-112740630D01*
X199156145Y-112596335D01*
X199094778Y-112555331D01*
X197605911Y-111066465D01*
X197564905Y-111005095D01*
X197499954Y-110961696D01*
X197521783Y-110957354D01*
X197764905Y-110794905D01*
X197805911Y-110733535D01*
X197968535Y-110570911D01*
X198029905Y-110529905D01*
X198192354Y-110286783D01*
X198235000Y-110072388D01*
X198235000Y-110072387D01*
X198249399Y-110000000D01*
X198235000Y-109927612D01*
X198235000Y-108568691D01*
X199265000Y-108568691D01*
X199265000Y-108709250D01*
X199423750Y-108868000D01*
X200873000Y-108868000D01*
X200873000Y-108218750D01*
X201127000Y-108218750D01*
X201127000Y-108868000D01*
X202576250Y-108868000D01*
X202735000Y-108709250D01*
X202735000Y-108568691D01*
X202638327Y-108335302D01*
X202459699Y-108156673D01*
X202226310Y-108060000D01*
X201285750Y-108060000D01*
X201127000Y-108218750D01*
X200873000Y-108218750D01*
X200714250Y-108060000D01*
X199773690Y-108060000D01*
X199540301Y-108156673D01*
X199361673Y-108335302D01*
X199265000Y-108568691D01*
X198235000Y-108568691D01*
X198235000Y-105998628D01*
X198249399Y-105926240D01*
X198192354Y-105639458D01*
X198192354Y-105639457D01*
X198029905Y-105396335D01*
X197968537Y-105355330D01*
X197345710Y-104732504D01*
X197345710Y-104060250D01*
X197296427Y-103812485D01*
X197156079Y-103602441D01*
X196946035Y-103462093D01*
X196698270Y-103412810D01*
X195649250Y-103412810D01*
X195401485Y-103462093D01*
X195300000Y-103529904D01*
X195198515Y-103462093D01*
X194950750Y-103412810D01*
X193901730Y-103412810D01*
X193653965Y-103462093D01*
X193443921Y-103602441D01*
X193303573Y-103812485D01*
X193254290Y-104060250D01*
X193254290Y-105139750D01*
X193303573Y-105387515D01*
X193443921Y-105597559D01*
X193447574Y-105600000D01*
X193443921Y-105602441D01*
X193303573Y-105812485D01*
X193254290Y-106060250D01*
X193254290Y-106732503D01*
X191531463Y-108455331D01*
X191470096Y-108496335D01*
X191429092Y-108557702D01*
X191429091Y-108557703D01*
X191307646Y-108739458D01*
X191250602Y-109026240D01*
X191265001Y-109098629D01*
X191265000Y-110195553D01*
X190274377Y-111186177D01*
X190145180Y-110992820D01*
X190109646Y-110969077D01*
X190262135Y-110830328D01*
X190492220Y-110343070D01*
X190369720Y-110127000D01*
X189127000Y-110127000D01*
X189127000Y-110147000D01*
X188873000Y-110147000D01*
X188873000Y-110127000D01*
X187630280Y-110127000D01*
X187507780Y-110343070D01*
X187737865Y-110830328D01*
X187890354Y-110969077D01*
X187854820Y-110992820D01*
X187546056Y-111454918D01*
X187437632Y-112000000D01*
X187546056Y-112545082D01*
X187850022Y-113000000D01*
X187546056Y-113454918D01*
X187437632Y-114000000D01*
X187546056Y-114545082D01*
X187850022Y-115000000D01*
X187546056Y-115454918D01*
X187437632Y-116000000D01*
X187546056Y-116545082D01*
X187854820Y-117007180D01*
X188316918Y-117315944D01*
X188724412Y-117397000D01*
X189275588Y-117397000D01*
X189592610Y-117333940D01*
X193466730Y-117333940D01*
X193466730Y-117714250D01*
X193625480Y-117873000D01*
X194499240Y-117873000D01*
X194499240Y-116984000D01*
X194340490Y-116825250D01*
X193975421Y-116825250D01*
X193742032Y-116921923D01*
X193563403Y-117100551D01*
X193466730Y-117333940D01*
X189592610Y-117333940D01*
X189683082Y-117315944D01*
X190145180Y-117007180D01*
X190453944Y-116545082D01*
X190562368Y-116000000D01*
X190558565Y-115980881D01*
X192120336Y-114419110D01*
X191965000Y-114794126D01*
X191965000Y-115205874D01*
X192122569Y-115586280D01*
X192413720Y-115877431D01*
X192794126Y-116035000D01*
X193205874Y-116035000D01*
X193516224Y-115906449D01*
X193643921Y-116097559D01*
X193853965Y-116237907D01*
X194101730Y-116287190D01*
X195150750Y-116287190D01*
X195398515Y-116237907D01*
X195488953Y-116177478D01*
X195489552Y-116178077D01*
X195722941Y-116274750D01*
X196088010Y-116274750D01*
X196246760Y-116116000D01*
X196246760Y-115227000D01*
X196226760Y-115227000D01*
X196226760Y-114973000D01*
X196246760Y-114973000D01*
X196246760Y-114084000D01*
X196088010Y-113925250D01*
X195722941Y-113925250D01*
X195489552Y-114021923D01*
X195488953Y-114022522D01*
X195448772Y-113995674D01*
X195692007Y-113752440D01*
X196700000Y-113752440D01*
X196947765Y-113703157D01*
X197157809Y-113562809D01*
X197298157Y-113352765D01*
X197347440Y-113105000D01*
X197347440Y-112886887D01*
X197891240Y-113430687D01*
X197891240Y-113954679D01*
X197853965Y-113962093D01*
X197643921Y-114102441D01*
X197503573Y-114312485D01*
X197496886Y-114346102D01*
X197436597Y-114200551D01*
X197257968Y-114021923D01*
X197024579Y-113925250D01*
X196659510Y-113925250D01*
X196500760Y-114084000D01*
X196500760Y-114973000D01*
X196520760Y-114973000D01*
X196520760Y-115227000D01*
X196500760Y-115227000D01*
X196500760Y-116116000D01*
X196659510Y-116274750D01*
X197024579Y-116274750D01*
X197257968Y-116178077D01*
X197436597Y-115999449D01*
X197496886Y-115853898D01*
X197503573Y-115887515D01*
X197643921Y-116097559D01*
X197853965Y-116237907D01*
X197891240Y-116245321D01*
X197891241Y-119969312D01*
X197545710Y-120314843D01*
X197545710Y-119260250D01*
X197496427Y-119012485D01*
X197421266Y-118900000D01*
X197496427Y-118787515D01*
X197545710Y-118539750D01*
X197545710Y-117460250D01*
X197496427Y-117212485D01*
X197356079Y-117002441D01*
X197146035Y-116862093D01*
X196898270Y-116812810D01*
X195849250Y-116812810D01*
X195601485Y-116862093D01*
X195511047Y-116922522D01*
X195510448Y-116921923D01*
X195277059Y-116825250D01*
X194911990Y-116825250D01*
X194753240Y-116984000D01*
X194753240Y-117873000D01*
X194773240Y-117873000D01*
X194773240Y-118127000D01*
X194753240Y-118127000D01*
X194753240Y-118147000D01*
X194499240Y-118147000D01*
X194499240Y-118127000D01*
X193625480Y-118127000D01*
X193466730Y-118285750D01*
X193466730Y-118666060D01*
X193563403Y-118899449D01*
X193572814Y-118908860D01*
X193503573Y-119012485D01*
X193499031Y-119035320D01*
X193386280Y-118922569D01*
X193005874Y-118765000D01*
X192594126Y-118765000D01*
X192213720Y-118922569D01*
X191922569Y-119213720D01*
X191765000Y-119594126D01*
X191765000Y-120005874D01*
X191922569Y-120386280D01*
X192213720Y-120677431D01*
X192594126Y-120835000D01*
X193005874Y-120835000D01*
X193386280Y-120677431D01*
X193499031Y-120564680D01*
X193503573Y-120587515D01*
X193643921Y-120797559D01*
X193853965Y-120937907D01*
X194101730Y-120987190D01*
X195150750Y-120987190D01*
X195398515Y-120937907D01*
X195465000Y-120893483D01*
X195465000Y-121205874D01*
X195552316Y-121416675D01*
X195277881Y-121303000D01*
X194722119Y-121303000D01*
X194208663Y-121515680D01*
X193815680Y-121908663D01*
X193603000Y-122422119D01*
X193603000Y-122977881D01*
X193815680Y-123491337D01*
X194208663Y-123884320D01*
X194722119Y-124097000D01*
X195277881Y-124097000D01*
X195791337Y-123884320D01*
X196184320Y-123491337D01*
X196201844Y-123449031D01*
X196272384Y-123435000D01*
X196272388Y-123435000D01*
X196486783Y-123392354D01*
X196729905Y-123229905D01*
X196770911Y-123168535D01*
X199094777Y-120844669D01*
X199156145Y-120803665D01*
X199318594Y-120560543D01*
X199361240Y-120346148D01*
X199375639Y-120273760D01*
X199361240Y-120201372D01*
X199361240Y-116245321D01*
X199398515Y-116237907D01*
X199500000Y-116170096D01*
X199601485Y-116237907D01*
X199849250Y-116287190D01*
X200249099Y-116287190D01*
X200122569Y-116413720D01*
X199965000Y-116794126D01*
X199965000Y-117205874D01*
X200122569Y-117586280D01*
X200413720Y-117877431D01*
X200794126Y-118035000D01*
X201205874Y-118035000D01*
X201265001Y-118010509D01*
X201265001Y-118422128D01*
X200630680Y-121382297D01*
X200308663Y-121515680D01*
X199915680Y-121908663D01*
X199703000Y-122422119D01*
X199703000Y-122977881D01*
X199915680Y-123491337D01*
X200308663Y-123884320D01*
X200822119Y-124097000D01*
X201377881Y-124097000D01*
X201891337Y-123884320D01*
X202284320Y-123491337D01*
X202497000Y-122977881D01*
X202497000Y-122422119D01*
X202284320Y-121908663D01*
X202067680Y-121692023D01*
X202689230Y-118791458D01*
X202692354Y-118786783D01*
X202719809Y-118648758D01*
X202733852Y-118583224D01*
X202733933Y-118577754D01*
X202735000Y-118572388D01*
X202735000Y-118505347D01*
X202737074Y-118364652D01*
X202735000Y-118359428D01*
X202735000Y-114572388D01*
X202749399Y-114500000D01*
X202692354Y-114213218D01*
X202692354Y-114213217D01*
X202529905Y-113970095D01*
X202468538Y-113929091D01*
X202260051Y-113720604D01*
X202347765Y-113703157D01*
X202557809Y-113562809D01*
X202698157Y-113352765D01*
X202747440Y-113105000D01*
X202747440Y-112505000D01*
X202698157Y-112257235D01*
X202639868Y-112170000D01*
X202698157Y-112082765D01*
X202707658Y-112035000D01*
X202873000Y-112035000D01*
X202873000Y-124290000D01*
X180069930Y-124290000D01*
X179894345Y-124255074D01*
X179804774Y-124195225D01*
X179744926Y-124105655D01*
X179710000Y-123930070D01*
X179710000Y-121575322D01*
X179865000Y-121575322D01*
X179865000Y-122424678D01*
X180190034Y-123209380D01*
X180790620Y-123809966D01*
X181575322Y-124135000D01*
X182424678Y-124135000D01*
X183209380Y-123809966D01*
X183809966Y-123209380D01*
X184135000Y-122424678D01*
X184135000Y-121575322D01*
X183809966Y-120790620D01*
X183209380Y-120190034D01*
X182424678Y-119865000D01*
X181575322Y-119865000D01*
X180790620Y-120190034D01*
X180190034Y-120790620D01*
X179865000Y-121575322D01*
X179710000Y-121575322D01*
X179710000Y-109656930D01*
X187507780Y-109656930D01*
X187630280Y-109873000D01*
X188873000Y-109873000D01*
X188873000Y-108761251D01*
X189127000Y-108761251D01*
X189127000Y-109873000D01*
X190369720Y-109873000D01*
X190492220Y-109656930D01*
X190262135Y-109169672D01*
X189858812Y-108802689D01*
X189345752Y-108617986D01*
X189127000Y-108761251D01*
X188873000Y-108761251D01*
X188654248Y-108617986D01*
X188141188Y-108802689D01*
X187737865Y-109169672D01*
X187507780Y-109656930D01*
X179710000Y-109656930D01*
X179710000Y-102575322D01*
X179865000Y-102575322D01*
X179865000Y-103424678D01*
X180190034Y-104209380D01*
X180790620Y-104809966D01*
X181575322Y-105135000D01*
X182424678Y-105135000D01*
X183209380Y-104809966D01*
X183809966Y-104209380D01*
X184135000Y-103424678D01*
X184135000Y-102575322D01*
X183809966Y-101790620D01*
X183209380Y-101190034D01*
X182424678Y-100865000D01*
X181575322Y-100865000D01*
X180790620Y-101190034D01*
X180190034Y-101790620D01*
X179865000Y-102575322D01*
X179710000Y-102575322D01*
X179710000Y-101069930D01*
X179744926Y-100894345D01*
X179804774Y-100804775D01*
X179894345Y-100744926D01*
X180069930Y-100710000D01*
X202873000Y-100710000D01*
X202873000Y-109356593D01*
G04 #@! TD*
M02*
