G04 #@! TF.GenerationSoftware,KiCad,Pcbnew,(5.0.2)-1*
G04 #@! TF.CreationDate,2019-02-16T11:26:36+09:00*
G04 #@! TF.ProjectId,EEPROM,45455052-4f4d-42e6-9b69-6361645f7063,v1.0*
G04 #@! TF.SameCoordinates,Original*
G04 #@! TF.FileFunction,Copper,L2,Bot*
G04 #@! TF.FilePolarity,Positive*
%FSLAX46Y46*%
G04 Gerber Fmt 4.6, Leading zero omitted, Abs format (unit mm)*
G04 Created by KiCad (PCBNEW (5.0.2)-1) date 2019/02/16 11:26:36*
%MOMM*%
%LPD*%
G01*
G04 APERTURE LIST*
G04 #@! TA.AperFunction,ComponentPad*
%ADD10O,1.800000X1.524000*%
G04 #@! TD*
G04 #@! TA.AperFunction,ComponentPad*
%ADD11C,1.524000*%
G04 #@! TD*
G04 #@! TA.AperFunction,ViaPad*
%ADD12C,0.800000*%
G04 #@! TD*
G04 #@! TA.AperFunction,ViaPad*
%ADD13C,1.000000*%
G04 #@! TD*
G04 #@! TA.AperFunction,Conductor*
%ADD14C,0.200000*%
G04 #@! TD*
G04 #@! TA.AperFunction,Conductor*
%ADD15C,0.254000*%
G04 #@! TD*
G04 APERTURE END LIST*
D10*
G04 #@! TO.P,P1,1*
G04 #@! TO.N,/SCL*
X189000000Y-116000000D03*
G04 #@! TO.P,P1,2*
G04 #@! TO.N,/SDA*
X189000000Y-114000000D03*
G04 #@! TO.P,P1,3*
G04 #@! TO.N,/VDD*
X189000000Y-112000000D03*
G04 #@! TO.P,P1,4*
G04 #@! TO.N,/GND*
X189000000Y-110000000D03*
G04 #@! TD*
D11*
G04 #@! TO.P,TP1,1*
G04 #@! TO.N,/VOUT*
X201100000Y-122700000D03*
G04 #@! TD*
G04 #@! TO.P,TP2,1*
G04 #@! TO.N,/RFIO*
X195000000Y-122700000D03*
G04 #@! TD*
D12*
G04 #@! TO.N,/GND*
X199000000Y-108000000D03*
X197000000Y-114000000D03*
X200100000Y-119200000D03*
X181700000Y-113200000D03*
X186500000Y-101900000D03*
X189600000Y-122800000D03*
G04 #@! TO.N,/VDD*
X193000000Y-115000000D03*
X201000000Y-117000000D03*
X192800000Y-119800000D03*
G04 #@! TO.N,/VOUT*
X196500000Y-121000000D03*
D13*
G04 #@! TO.N,/ANT*
X208298000Y-112500000D03*
D12*
X203300000Y-110300000D03*
G04 #@! TD*
D14*
G04 #@! TO.N,/GND*
X186500000Y-108400000D02*
X181700000Y-113200000D01*
X186500000Y-101900000D02*
X186500000Y-108400000D01*
G04 #@! TO.N,/VDD*
X190500000Y-112000000D02*
X189000000Y-112000000D01*
X193000000Y-114500000D02*
X190500000Y-112000000D01*
X193000000Y-115000000D02*
X193000000Y-114500000D01*
X193000000Y-115000000D02*
X193000000Y-116000000D01*
X193000000Y-116000000D02*
X194000000Y-117000000D01*
X194000000Y-117000000D02*
X201000000Y-117000000D01*
X193000000Y-115000000D02*
X193000000Y-119600000D01*
X193000000Y-119600000D02*
X192800000Y-119800000D01*
G04 #@! TO.N,/VOUT*
X199400000Y-121000000D02*
X201100000Y-122700000D01*
X196500000Y-121000000D02*
X199400000Y-121000000D01*
G04 #@! TO.N,/ANT*
X208298000Y-112499900D02*
X207628000Y-112499900D01*
X213700000Y-108800000D02*
X213700000Y-116200000D01*
X207228000Y-116200000D02*
X213700000Y-116200000D01*
X214100000Y-108400000D02*
X214100000Y-116600000D01*
X206828000Y-116600000D02*
X214100000Y-116600000D01*
X214500000Y-107999900D02*
X214500000Y-116999900D01*
X206428000Y-116999900D02*
X214500000Y-116999900D01*
X214900000Y-107600000D02*
X214900000Y-117400000D01*
X206028000Y-117400000D02*
X214900000Y-117400000D01*
X215300000Y-107200000D02*
X215294000Y-117797000D01*
X215294000Y-117797000D02*
X205628000Y-117800000D01*
X215700000Y-106800000D02*
X215700000Y-118200000D01*
X205228000Y-118200000D02*
X215700000Y-118200000D01*
X216100000Y-106400000D02*
X216100000Y-118600000D01*
X204828000Y-118600000D02*
X216100000Y-118600000D01*
X216500000Y-105999900D02*
X216500000Y-118999900D01*
X204428000Y-118999900D02*
X216500000Y-118999900D01*
X216900000Y-105600000D02*
X216900000Y-119400000D01*
X204028000Y-119400000D02*
X216900000Y-119400000D01*
X207630000Y-108800000D02*
X207628000Y-112499900D01*
X207630000Y-108800000D02*
X213700000Y-108800000D01*
X207230000Y-108400000D02*
X207228000Y-116200000D01*
X207230000Y-108400000D02*
X214100000Y-108400000D01*
X206830000Y-107999900D02*
X206828000Y-116600000D01*
X206830000Y-107999900D02*
X214500000Y-107999900D01*
X206430000Y-107600000D02*
X206428000Y-116999900D01*
X206430000Y-107600000D02*
X214900000Y-107600000D01*
X206030000Y-107200000D02*
X206028000Y-117400000D01*
X206030000Y-107200000D02*
X215300000Y-107200000D01*
X205630000Y-106800000D02*
X205628000Y-117800000D01*
X205630000Y-106800000D02*
X215700000Y-106800000D01*
X205230000Y-106400000D02*
X205228000Y-118200000D01*
X205230000Y-106400000D02*
X216100000Y-106400000D01*
X204830000Y-105999900D02*
X204828000Y-118600000D01*
X204830000Y-105999900D02*
X216500000Y-105999900D01*
X204430000Y-105600000D02*
X204428000Y-118999900D01*
X204430000Y-105600000D02*
X216900000Y-105600000D01*
X204028000Y-110900000D02*
X204028000Y-119400000D01*
X203428000Y-110300000D02*
X204028000Y-110900000D01*
X203300000Y-110300000D02*
X203428000Y-110300000D01*
G04 #@! TD*
D15*
G04 #@! TO.N,/GND*
G36*
X202873000Y-109356593D02*
X202713720Y-109422569D01*
X202422569Y-109713720D01*
X202265000Y-110094126D01*
X202265000Y-110505874D01*
X202422569Y-110886280D01*
X202713720Y-111177431D01*
X202873000Y-111243407D01*
X202873000Y-124290000D01*
X180069930Y-124290000D01*
X179894345Y-124255074D01*
X179804774Y-124195225D01*
X179744926Y-124105655D01*
X179710000Y-123930070D01*
X179710000Y-121575322D01*
X179865000Y-121575322D01*
X179865000Y-122424678D01*
X180190034Y-123209380D01*
X180790620Y-123809966D01*
X181575322Y-124135000D01*
X182424678Y-124135000D01*
X183209380Y-123809966D01*
X183809966Y-123209380D01*
X184135000Y-122424678D01*
X184135000Y-122422119D01*
X193603000Y-122422119D01*
X193603000Y-122977881D01*
X193815680Y-123491337D01*
X194208663Y-123884320D01*
X194722119Y-124097000D01*
X195277881Y-124097000D01*
X195791337Y-123884320D01*
X196184320Y-123491337D01*
X196397000Y-122977881D01*
X196397000Y-122422119D01*
X196224747Y-122006262D01*
X196294126Y-122035000D01*
X196705874Y-122035000D01*
X197086280Y-121877431D01*
X197228711Y-121735000D01*
X199095554Y-121735000D01*
X199726336Y-122365782D01*
X199703000Y-122422119D01*
X199703000Y-122977881D01*
X199915680Y-123491337D01*
X200308663Y-123884320D01*
X200822119Y-124097000D01*
X201377881Y-124097000D01*
X201891337Y-123884320D01*
X202284320Y-123491337D01*
X202497000Y-122977881D01*
X202497000Y-122422119D01*
X202284320Y-121908663D01*
X201891337Y-121515680D01*
X201377881Y-121303000D01*
X200822119Y-121303000D01*
X200765782Y-121326336D01*
X199970911Y-120531465D01*
X199929905Y-120470095D01*
X199686783Y-120307646D01*
X199472388Y-120265000D01*
X199472384Y-120265000D01*
X199400000Y-120250602D01*
X199327616Y-120265000D01*
X197228711Y-120265000D01*
X197086280Y-120122569D01*
X196705874Y-119965000D01*
X196294126Y-119965000D01*
X195913720Y-120122569D01*
X195622569Y-120413720D01*
X195465000Y-120794126D01*
X195465000Y-121205874D01*
X195552316Y-121416675D01*
X195277881Y-121303000D01*
X194722119Y-121303000D01*
X194208663Y-121515680D01*
X193815680Y-121908663D01*
X193603000Y-122422119D01*
X184135000Y-122422119D01*
X184135000Y-121575322D01*
X183809966Y-120790620D01*
X183209380Y-120190034D01*
X182424678Y-119865000D01*
X181575322Y-119865000D01*
X180790620Y-120190034D01*
X180190034Y-120790620D01*
X179865000Y-121575322D01*
X179710000Y-121575322D01*
X179710000Y-112000000D01*
X187437632Y-112000000D01*
X187546056Y-112545082D01*
X187850022Y-113000000D01*
X187546056Y-113454918D01*
X187437632Y-114000000D01*
X187546056Y-114545082D01*
X187850022Y-115000000D01*
X187546056Y-115454918D01*
X187437632Y-116000000D01*
X187546056Y-116545082D01*
X187854820Y-117007180D01*
X188316918Y-117315944D01*
X188724412Y-117397000D01*
X189275588Y-117397000D01*
X189683082Y-117315944D01*
X190145180Y-117007180D01*
X190453944Y-116545082D01*
X190562368Y-116000000D01*
X190453944Y-115454918D01*
X190149978Y-115000000D01*
X190453944Y-114545082D01*
X190562368Y-114000000D01*
X190453944Y-113454918D01*
X190149978Y-113000000D01*
X190274377Y-112813823D01*
X192049845Y-114589292D01*
X191965000Y-114794126D01*
X191965000Y-115205874D01*
X192122569Y-115586280D01*
X192265000Y-115728711D01*
X192265000Y-115927615D01*
X192250602Y-116000000D01*
X192265000Y-116072385D01*
X192265001Y-118901328D01*
X192213720Y-118922569D01*
X191922569Y-119213720D01*
X191765000Y-119594126D01*
X191765000Y-120005874D01*
X191922569Y-120386280D01*
X192213720Y-120677431D01*
X192594126Y-120835000D01*
X193005874Y-120835000D01*
X193386280Y-120677431D01*
X193677431Y-120386280D01*
X193835000Y-120005874D01*
X193835000Y-119594126D01*
X193735000Y-119352704D01*
X193735000Y-117696687D01*
X193927612Y-117735000D01*
X194000000Y-117749399D01*
X194072388Y-117735000D01*
X200271289Y-117735000D01*
X200413720Y-117877431D01*
X200794126Y-118035000D01*
X201205874Y-118035000D01*
X201586280Y-117877431D01*
X201877431Y-117586280D01*
X202035000Y-117205874D01*
X202035000Y-116794126D01*
X201877431Y-116413720D01*
X201586280Y-116122569D01*
X201205874Y-115965000D01*
X200794126Y-115965000D01*
X200413720Y-116122569D01*
X200271289Y-116265000D01*
X194304447Y-116265000D01*
X193751579Y-115712132D01*
X193877431Y-115586280D01*
X194035000Y-115205874D01*
X194035000Y-114794126D01*
X193877431Y-114413720D01*
X193696184Y-114232473D01*
X193692354Y-114213217D01*
X193529905Y-113970095D01*
X193468537Y-113929091D01*
X191070911Y-111531465D01*
X191029905Y-111470095D01*
X190786783Y-111307646D01*
X190572388Y-111265000D01*
X190572384Y-111265000D01*
X190500000Y-111250602D01*
X190427616Y-111265000D01*
X190327045Y-111265000D01*
X190145180Y-110992820D01*
X190109646Y-110969077D01*
X190262135Y-110830328D01*
X190492220Y-110343070D01*
X190369720Y-110127000D01*
X189127000Y-110127000D01*
X189127000Y-110147000D01*
X188873000Y-110147000D01*
X188873000Y-110127000D01*
X187630280Y-110127000D01*
X187507780Y-110343070D01*
X187737865Y-110830328D01*
X187890354Y-110969077D01*
X187854820Y-110992820D01*
X187546056Y-111454918D01*
X187437632Y-112000000D01*
X179710000Y-112000000D01*
X179710000Y-109656930D01*
X187507780Y-109656930D01*
X187630280Y-109873000D01*
X188873000Y-109873000D01*
X188873000Y-108761251D01*
X189127000Y-108761251D01*
X189127000Y-109873000D01*
X190369720Y-109873000D01*
X190492220Y-109656930D01*
X190262135Y-109169672D01*
X189858812Y-108802689D01*
X189345752Y-108617986D01*
X189127000Y-108761251D01*
X188873000Y-108761251D01*
X188654248Y-108617986D01*
X188141188Y-108802689D01*
X187737865Y-109169672D01*
X187507780Y-109656930D01*
X179710000Y-109656930D01*
X179710000Y-102575322D01*
X179865000Y-102575322D01*
X179865000Y-103424678D01*
X180190034Y-104209380D01*
X180790620Y-104809966D01*
X181575322Y-105135000D01*
X182424678Y-105135000D01*
X183209380Y-104809966D01*
X183809966Y-104209380D01*
X184135000Y-103424678D01*
X184135000Y-102575322D01*
X183809966Y-101790620D01*
X183209380Y-101190034D01*
X182424678Y-100865000D01*
X181575322Y-100865000D01*
X180790620Y-101190034D01*
X180190034Y-101790620D01*
X179865000Y-102575322D01*
X179710000Y-102575322D01*
X179710000Y-101069930D01*
X179744926Y-100894345D01*
X179804774Y-100804775D01*
X179894345Y-100744926D01*
X180069930Y-100710000D01*
X202873000Y-100710000D01*
X202873000Y-109356593D01*
X202873000Y-109356593D01*
G37*
X202873000Y-109356593D02*
X202713720Y-109422569D01*
X202422569Y-109713720D01*
X202265000Y-110094126D01*
X202265000Y-110505874D01*
X202422569Y-110886280D01*
X202713720Y-111177431D01*
X202873000Y-111243407D01*
X202873000Y-124290000D01*
X180069930Y-124290000D01*
X179894345Y-124255074D01*
X179804774Y-124195225D01*
X179744926Y-124105655D01*
X179710000Y-123930070D01*
X179710000Y-121575322D01*
X179865000Y-121575322D01*
X179865000Y-122424678D01*
X180190034Y-123209380D01*
X180790620Y-123809966D01*
X181575322Y-124135000D01*
X182424678Y-124135000D01*
X183209380Y-123809966D01*
X183809966Y-123209380D01*
X184135000Y-122424678D01*
X184135000Y-122422119D01*
X193603000Y-122422119D01*
X193603000Y-122977881D01*
X193815680Y-123491337D01*
X194208663Y-123884320D01*
X194722119Y-124097000D01*
X195277881Y-124097000D01*
X195791337Y-123884320D01*
X196184320Y-123491337D01*
X196397000Y-122977881D01*
X196397000Y-122422119D01*
X196224747Y-122006262D01*
X196294126Y-122035000D01*
X196705874Y-122035000D01*
X197086280Y-121877431D01*
X197228711Y-121735000D01*
X199095554Y-121735000D01*
X199726336Y-122365782D01*
X199703000Y-122422119D01*
X199703000Y-122977881D01*
X199915680Y-123491337D01*
X200308663Y-123884320D01*
X200822119Y-124097000D01*
X201377881Y-124097000D01*
X201891337Y-123884320D01*
X202284320Y-123491337D01*
X202497000Y-122977881D01*
X202497000Y-122422119D01*
X202284320Y-121908663D01*
X201891337Y-121515680D01*
X201377881Y-121303000D01*
X200822119Y-121303000D01*
X200765782Y-121326336D01*
X199970911Y-120531465D01*
X199929905Y-120470095D01*
X199686783Y-120307646D01*
X199472388Y-120265000D01*
X199472384Y-120265000D01*
X199400000Y-120250602D01*
X199327616Y-120265000D01*
X197228711Y-120265000D01*
X197086280Y-120122569D01*
X196705874Y-119965000D01*
X196294126Y-119965000D01*
X195913720Y-120122569D01*
X195622569Y-120413720D01*
X195465000Y-120794126D01*
X195465000Y-121205874D01*
X195552316Y-121416675D01*
X195277881Y-121303000D01*
X194722119Y-121303000D01*
X194208663Y-121515680D01*
X193815680Y-121908663D01*
X193603000Y-122422119D01*
X184135000Y-122422119D01*
X184135000Y-121575322D01*
X183809966Y-120790620D01*
X183209380Y-120190034D01*
X182424678Y-119865000D01*
X181575322Y-119865000D01*
X180790620Y-120190034D01*
X180190034Y-120790620D01*
X179865000Y-121575322D01*
X179710000Y-121575322D01*
X179710000Y-112000000D01*
X187437632Y-112000000D01*
X187546056Y-112545082D01*
X187850022Y-113000000D01*
X187546056Y-113454918D01*
X187437632Y-114000000D01*
X187546056Y-114545082D01*
X187850022Y-115000000D01*
X187546056Y-115454918D01*
X187437632Y-116000000D01*
X187546056Y-116545082D01*
X187854820Y-117007180D01*
X188316918Y-117315944D01*
X188724412Y-117397000D01*
X189275588Y-117397000D01*
X189683082Y-117315944D01*
X190145180Y-117007180D01*
X190453944Y-116545082D01*
X190562368Y-116000000D01*
X190453944Y-115454918D01*
X190149978Y-115000000D01*
X190453944Y-114545082D01*
X190562368Y-114000000D01*
X190453944Y-113454918D01*
X190149978Y-113000000D01*
X190274377Y-112813823D01*
X192049845Y-114589292D01*
X191965000Y-114794126D01*
X191965000Y-115205874D01*
X192122569Y-115586280D01*
X192265000Y-115728711D01*
X192265000Y-115927615D01*
X192250602Y-116000000D01*
X192265000Y-116072385D01*
X192265001Y-118901328D01*
X192213720Y-118922569D01*
X191922569Y-119213720D01*
X191765000Y-119594126D01*
X191765000Y-120005874D01*
X191922569Y-120386280D01*
X192213720Y-120677431D01*
X192594126Y-120835000D01*
X193005874Y-120835000D01*
X193386280Y-120677431D01*
X193677431Y-120386280D01*
X193835000Y-120005874D01*
X193835000Y-119594126D01*
X193735000Y-119352704D01*
X193735000Y-117696687D01*
X193927612Y-117735000D01*
X194000000Y-117749399D01*
X194072388Y-117735000D01*
X200271289Y-117735000D01*
X200413720Y-117877431D01*
X200794126Y-118035000D01*
X201205874Y-118035000D01*
X201586280Y-117877431D01*
X201877431Y-117586280D01*
X202035000Y-117205874D01*
X202035000Y-116794126D01*
X201877431Y-116413720D01*
X201586280Y-116122569D01*
X201205874Y-115965000D01*
X200794126Y-115965000D01*
X200413720Y-116122569D01*
X200271289Y-116265000D01*
X194304447Y-116265000D01*
X193751579Y-115712132D01*
X193877431Y-115586280D01*
X194035000Y-115205874D01*
X194035000Y-114794126D01*
X193877431Y-114413720D01*
X193696184Y-114232473D01*
X193692354Y-114213217D01*
X193529905Y-113970095D01*
X193468537Y-113929091D01*
X191070911Y-111531465D01*
X191029905Y-111470095D01*
X190786783Y-111307646D01*
X190572388Y-111265000D01*
X190572384Y-111265000D01*
X190500000Y-111250602D01*
X190427616Y-111265000D01*
X190327045Y-111265000D01*
X190145180Y-110992820D01*
X190109646Y-110969077D01*
X190262135Y-110830328D01*
X190492220Y-110343070D01*
X190369720Y-110127000D01*
X189127000Y-110127000D01*
X189127000Y-110147000D01*
X188873000Y-110147000D01*
X188873000Y-110127000D01*
X187630280Y-110127000D01*
X187507780Y-110343070D01*
X187737865Y-110830328D01*
X187890354Y-110969077D01*
X187854820Y-110992820D01*
X187546056Y-111454918D01*
X187437632Y-112000000D01*
X179710000Y-112000000D01*
X179710000Y-109656930D01*
X187507780Y-109656930D01*
X187630280Y-109873000D01*
X188873000Y-109873000D01*
X188873000Y-108761251D01*
X189127000Y-108761251D01*
X189127000Y-109873000D01*
X190369720Y-109873000D01*
X190492220Y-109656930D01*
X190262135Y-109169672D01*
X189858812Y-108802689D01*
X189345752Y-108617986D01*
X189127000Y-108761251D01*
X188873000Y-108761251D01*
X188654248Y-108617986D01*
X188141188Y-108802689D01*
X187737865Y-109169672D01*
X187507780Y-109656930D01*
X179710000Y-109656930D01*
X179710000Y-102575322D01*
X179865000Y-102575322D01*
X179865000Y-103424678D01*
X180190034Y-104209380D01*
X180790620Y-104809966D01*
X181575322Y-105135000D01*
X182424678Y-105135000D01*
X183209380Y-104809966D01*
X183809966Y-104209380D01*
X184135000Y-103424678D01*
X184135000Y-102575322D01*
X183809966Y-101790620D01*
X183209380Y-101190034D01*
X182424678Y-100865000D01*
X181575322Y-100865000D01*
X180790620Y-101190034D01*
X180190034Y-101790620D01*
X179865000Y-102575322D01*
X179710000Y-102575322D01*
X179710000Y-101069930D01*
X179744926Y-100894345D01*
X179804774Y-100804775D01*
X179894345Y-100744926D01*
X180069930Y-100710000D01*
X202873000Y-100710000D01*
X202873000Y-109356593D01*
G04 #@! TD*
M02*
