G04 #@! TF.GenerationSoftware,KiCad,Pcbnew,(5.0.2)-1*
G04 #@! TF.CreationDate,2019-02-16T11:26:36+09:00*
G04 #@! TF.ProjectId,EEPROM,45455052-4f4d-42e6-9b69-6361645f7063,v1.0*
G04 #@! TF.SameCoordinates,Original*
G04 #@! TF.FileFunction,Legend,Top*
G04 #@! TF.FilePolarity,Positive*
%FSLAX46Y46*%
G04 Gerber Fmt 4.6, Leading zero omitted, Abs format (unit mm)*
G04 Created by KiCad (PCBNEW (5.0.2)-1) date 2019/02/16 11:26:36*
%MOMM*%
%LPD*%
G01*
G04 APERTURE LIST*
%ADD10C,0.200000*%
%ADD11C,0.180000*%
%ADD12C,0.101600*%
%ADD13C,0.066040*%
%ADD14C,0.150000*%
%ADD15C,0.152400*%
%ADD16C,0.076200*%
G04 APERTURE END LIST*
D10*
X197500000Y-121661904D02*
X197652380Y-121661904D01*
X197728571Y-121700000D01*
X197804761Y-121776190D01*
X197842857Y-121928571D01*
X197842857Y-122195238D01*
X197804761Y-122347619D01*
X197728571Y-122423809D01*
X197652380Y-122461904D01*
X197500000Y-122461904D01*
X197423809Y-122423809D01*
X197347619Y-122347619D01*
X197309523Y-122195238D01*
X197309523Y-121928571D01*
X197347619Y-121776190D01*
X197423809Y-121700000D01*
X197500000Y-121661904D01*
X198185714Y-121661904D02*
X198185714Y-122309523D01*
X198223809Y-122385714D01*
X198261904Y-122423809D01*
X198338095Y-122461904D01*
X198490476Y-122461904D01*
X198566666Y-122423809D01*
X198604761Y-122385714D01*
X198642857Y-122309523D01*
X198642857Y-121661904D01*
X198909523Y-121661904D02*
X199366666Y-121661904D01*
X199138095Y-122461904D02*
X199138095Y-121661904D01*
X197671428Y-123023809D02*
X196985714Y-124052380D01*
X197938095Y-123861904D02*
X197938095Y-123061904D01*
X198128571Y-123061904D01*
X198242857Y-123100000D01*
X198319047Y-123176190D01*
X198357142Y-123252380D01*
X198395238Y-123404761D01*
X198395238Y-123519047D01*
X198357142Y-123671428D01*
X198319047Y-123747619D01*
X198242857Y-123823809D01*
X198128571Y-123861904D01*
X197938095Y-123861904D01*
X198738095Y-123861904D02*
X198738095Y-123061904D01*
X199080952Y-123823809D02*
X199195238Y-123861904D01*
X199385714Y-123861904D01*
X199461904Y-123823809D01*
X199500000Y-123785714D01*
X199538095Y-123709523D01*
X199538095Y-123633333D01*
X199500000Y-123557142D01*
X199461904Y-123519047D01*
X199385714Y-123480952D01*
X199233333Y-123442857D01*
X199157142Y-123404761D01*
X199119047Y-123366666D01*
X199080952Y-123290476D01*
X199080952Y-123214285D01*
X199119047Y-123138095D01*
X199157142Y-123100000D01*
X199233333Y-123061904D01*
X199423809Y-123061904D01*
X199538095Y-123100000D01*
X191200000Y-122300000D02*
X191123809Y-122261904D01*
X191009523Y-122261904D01*
X190895238Y-122300000D01*
X190819047Y-122376190D01*
X190780952Y-122452380D01*
X190742857Y-122604761D01*
X190742857Y-122719047D01*
X190780952Y-122871428D01*
X190819047Y-122947619D01*
X190895238Y-123023809D01*
X191009523Y-123061904D01*
X191085714Y-123061904D01*
X191200000Y-123023809D01*
X191238095Y-122985714D01*
X191238095Y-122719047D01*
X191085714Y-122719047D01*
X191580952Y-123061904D02*
X191580952Y-122261904D01*
X191885714Y-122261904D01*
X191961904Y-122300000D01*
X192000000Y-122338095D01*
X192038095Y-122414285D01*
X192038095Y-122528571D01*
X192000000Y-122604761D01*
X191961904Y-122642857D01*
X191885714Y-122680952D01*
X191580952Y-122680952D01*
X192380952Y-123061904D02*
X192380952Y-122261904D01*
X192914285Y-122261904D02*
X193066666Y-122261904D01*
X193142857Y-122300000D01*
X193219047Y-122376190D01*
X193257142Y-122528571D01*
X193257142Y-122795238D01*
X193219047Y-122947619D01*
X193142857Y-123023809D01*
X193066666Y-123061904D01*
X192914285Y-123061904D01*
X192838095Y-123023809D01*
X192761904Y-122947619D01*
X192723809Y-122795238D01*
X192723809Y-122528571D01*
X192761904Y-122376190D01*
X192838095Y-122300000D01*
X192914285Y-122261904D01*
X211421428Y-103261904D02*
X211421428Y-103595238D01*
X210897619Y-103738095D02*
X210897619Y-103261904D01*
X211897619Y-103261904D01*
X211897619Y-103738095D01*
X211421428Y-104166666D02*
X211421428Y-104500000D01*
X210897619Y-104642857D02*
X210897619Y-104166666D01*
X211897619Y-104166666D01*
X211897619Y-104642857D01*
X210897619Y-105071428D02*
X211897619Y-105071428D01*
X211897619Y-105452380D01*
X211850000Y-105547619D01*
X211802380Y-105595238D01*
X211707142Y-105642857D01*
X211564285Y-105642857D01*
X211469047Y-105595238D01*
X211421428Y-105547619D01*
X211373809Y-105452380D01*
X211373809Y-105071428D01*
X210897619Y-106642857D02*
X211373809Y-106309523D01*
X210897619Y-106071428D02*
X211897619Y-106071428D01*
X211897619Y-106452380D01*
X211850000Y-106547619D01*
X211802380Y-106595238D01*
X211707142Y-106642857D01*
X211564285Y-106642857D01*
X211469047Y-106595238D01*
X211421428Y-106547619D01*
X211373809Y-106452380D01*
X211373809Y-106071428D01*
X211897619Y-107261904D02*
X211897619Y-107452380D01*
X211850000Y-107547619D01*
X211754761Y-107642857D01*
X211564285Y-107690476D01*
X211230952Y-107690476D01*
X211040476Y-107642857D01*
X210945238Y-107547619D01*
X210897619Y-107452380D01*
X210897619Y-107261904D01*
X210945238Y-107166666D01*
X211040476Y-107071428D01*
X211230952Y-107023809D01*
X211564285Y-107023809D01*
X211754761Y-107071428D01*
X211850000Y-107166666D01*
X211897619Y-107261904D01*
X210897619Y-108119047D02*
X211897619Y-108119047D01*
X211183333Y-108452380D01*
X211897619Y-108785714D01*
X210897619Y-108785714D01*
X211421428Y-110357142D02*
X211373809Y-110500000D01*
X211326190Y-110547619D01*
X211230952Y-110595238D01*
X211088095Y-110595238D01*
X210992857Y-110547619D01*
X210945238Y-110500000D01*
X210897619Y-110404761D01*
X210897619Y-110023809D01*
X211897619Y-110023809D01*
X211897619Y-110357142D01*
X211850000Y-110452380D01*
X211802380Y-110500000D01*
X211707142Y-110547619D01*
X211611904Y-110547619D01*
X211516666Y-110500000D01*
X211469047Y-110452380D01*
X211421428Y-110357142D01*
X211421428Y-110023809D01*
X210897619Y-111166666D02*
X210945238Y-111071428D01*
X210992857Y-111023809D01*
X211088095Y-110976190D01*
X211373809Y-110976190D01*
X211469047Y-111023809D01*
X211516666Y-111071428D01*
X211564285Y-111166666D01*
X211564285Y-111309523D01*
X211516666Y-111404761D01*
X211469047Y-111452380D01*
X211373809Y-111500000D01*
X211088095Y-111500000D01*
X210992857Y-111452380D01*
X210945238Y-111404761D01*
X210897619Y-111309523D01*
X210897619Y-111166666D01*
X210897619Y-112357142D02*
X211421428Y-112357142D01*
X211516666Y-112309523D01*
X211564285Y-112214285D01*
X211564285Y-112023809D01*
X211516666Y-111928571D01*
X210945238Y-112357142D02*
X210897619Y-112261904D01*
X210897619Y-112023809D01*
X210945238Y-111928571D01*
X211040476Y-111880952D01*
X211135714Y-111880952D01*
X211230952Y-111928571D01*
X211278571Y-112023809D01*
X211278571Y-112261904D01*
X211326190Y-112357142D01*
X210897619Y-112833333D02*
X211564285Y-112833333D01*
X211373809Y-112833333D02*
X211469047Y-112880952D01*
X211516666Y-112928571D01*
X211564285Y-113023809D01*
X211564285Y-113119047D01*
X210897619Y-113880952D02*
X211897619Y-113880952D01*
X210945238Y-113880952D02*
X210897619Y-113785714D01*
X210897619Y-113595238D01*
X210945238Y-113500000D01*
X210992857Y-113452380D01*
X211088095Y-113404761D01*
X211373809Y-113404761D01*
X211469047Y-113452380D01*
X211516666Y-113500000D01*
X211564285Y-113595238D01*
X211564285Y-113785714D01*
X211516666Y-113880952D01*
X211564285Y-115023809D02*
X210897619Y-115214285D01*
X211373809Y-115404761D01*
X210897619Y-115595238D01*
X211564285Y-115785714D01*
X210897619Y-116166666D02*
X211564285Y-116166666D01*
X211897619Y-116166666D02*
X211850000Y-116119047D01*
X211802380Y-116166666D01*
X211850000Y-116214285D01*
X211897619Y-116166666D01*
X211802380Y-116166666D01*
X211564285Y-116500000D02*
X211564285Y-116880952D01*
X211897619Y-116642857D02*
X211040476Y-116642857D01*
X210945238Y-116690476D01*
X210897619Y-116785714D01*
X210897619Y-116880952D01*
X210897619Y-117214285D02*
X211897619Y-117214285D01*
X210897619Y-117642857D02*
X211421428Y-117642857D01*
X211516666Y-117595238D01*
X211564285Y-117500000D01*
X211564285Y-117357142D01*
X211516666Y-117261904D01*
X211469047Y-117214285D01*
X210897619Y-119452380D02*
X211373809Y-119119047D01*
X210897619Y-118880952D02*
X211897619Y-118880952D01*
X211897619Y-119261904D01*
X211850000Y-119357142D01*
X211802380Y-119404761D01*
X211707142Y-119452380D01*
X211564285Y-119452380D01*
X211469047Y-119404761D01*
X211421428Y-119357142D01*
X211373809Y-119261904D01*
X211373809Y-118880952D01*
X211421428Y-120214285D02*
X211421428Y-119880952D01*
X210897619Y-119880952D02*
X211897619Y-119880952D01*
X211897619Y-120357142D01*
X210897619Y-120738095D02*
X211897619Y-120738095D01*
X210897619Y-121214285D02*
X211897619Y-121214285D01*
X211897619Y-121452380D01*
X211850000Y-121595238D01*
X211754761Y-121690476D01*
X211659523Y-121738095D01*
X211469047Y-121785714D01*
X211326190Y-121785714D01*
X211135714Y-121738095D01*
X211040476Y-121690476D01*
X210945238Y-121595238D01*
X210897619Y-121452380D01*
X210897619Y-121214285D01*
X209197619Y-105785714D02*
X209197619Y-105214285D01*
X209197619Y-105500000D02*
X210197619Y-105500000D01*
X210054761Y-105404761D01*
X209959523Y-105309523D01*
X209911904Y-105214285D01*
X209197619Y-106261904D02*
X209197619Y-106452380D01*
X209245238Y-106547619D01*
X209292857Y-106595238D01*
X209435714Y-106690476D01*
X209626190Y-106738095D01*
X210007142Y-106738095D01*
X210102380Y-106690476D01*
X210150000Y-106642857D01*
X210197619Y-106547619D01*
X210197619Y-106357142D01*
X210150000Y-106261904D01*
X210102380Y-106214285D01*
X210007142Y-106166666D01*
X209769047Y-106166666D01*
X209673809Y-106214285D01*
X209626190Y-106261904D01*
X209578571Y-106357142D01*
X209578571Y-106547619D01*
X209626190Y-106642857D01*
X209673809Y-106690476D01*
X209769047Y-106738095D01*
X210197619Y-107357142D02*
X210197619Y-107452380D01*
X210150000Y-107547619D01*
X210102380Y-107595238D01*
X210007142Y-107642857D01*
X209816666Y-107690476D01*
X209578571Y-107690476D01*
X209388095Y-107642857D01*
X209292857Y-107595238D01*
X209245238Y-107547619D01*
X209197619Y-107452380D01*
X209197619Y-107357142D01*
X209245238Y-107261904D01*
X209292857Y-107214285D01*
X209388095Y-107166666D01*
X209578571Y-107119047D01*
X209816666Y-107119047D01*
X210007142Y-107166666D01*
X210102380Y-107214285D01*
X210150000Y-107261904D01*
X210197619Y-107357142D01*
X210102380Y-108071428D02*
X210150000Y-108119047D01*
X210197619Y-108214285D01*
X210197619Y-108452380D01*
X210150000Y-108547619D01*
X210102380Y-108595238D01*
X210007142Y-108642857D01*
X209911904Y-108642857D01*
X209769047Y-108595238D01*
X209197619Y-108023809D01*
X209197619Y-108642857D01*
X209864285Y-109738095D02*
X209197619Y-109976190D01*
X209864285Y-110214285D01*
X209197619Y-111119047D02*
X209197619Y-110547619D01*
X209197619Y-110833333D02*
X210197619Y-110833333D01*
X210054761Y-110738095D01*
X209959523Y-110642857D01*
X209911904Y-110547619D01*
X209292857Y-111547619D02*
X209245238Y-111595238D01*
X209197619Y-111547619D01*
X209245238Y-111500000D01*
X209292857Y-111547619D01*
X209197619Y-111547619D01*
X210197619Y-112214285D02*
X210197619Y-112309523D01*
X210150000Y-112404761D01*
X210102380Y-112452380D01*
X210007142Y-112500000D01*
X209816666Y-112547619D01*
X209578571Y-112547619D01*
X209388095Y-112500000D01*
X209292857Y-112452380D01*
X209245238Y-112404761D01*
X209197619Y-112309523D01*
X209197619Y-112214285D01*
X209245238Y-112119047D01*
X209292857Y-112071428D01*
X209388095Y-112023809D01*
X209578571Y-111976190D01*
X209816666Y-111976190D01*
X210007142Y-112023809D01*
X210102380Y-112071428D01*
X210150000Y-112119047D01*
X210197619Y-112214285D01*
X209292857Y-114309523D02*
X209245238Y-114261904D01*
X209197619Y-114119047D01*
X209197619Y-114023809D01*
X209245238Y-113880952D01*
X209340476Y-113785714D01*
X209435714Y-113738095D01*
X209626190Y-113690476D01*
X209769047Y-113690476D01*
X209959523Y-113738095D01*
X210054761Y-113785714D01*
X210150000Y-113880952D01*
X210197619Y-114023809D01*
X210197619Y-114119047D01*
X210150000Y-114261904D01*
X210102380Y-114309523D01*
X209197619Y-114738095D02*
X209864285Y-114738095D01*
X209673809Y-114738095D02*
X209769047Y-114785714D01*
X209816666Y-114833333D01*
X209864285Y-114928571D01*
X209864285Y-115023809D01*
X209245238Y-115738095D02*
X209197619Y-115642857D01*
X209197619Y-115452380D01*
X209245238Y-115357142D01*
X209340476Y-115309523D01*
X209721428Y-115309523D01*
X209816666Y-115357142D01*
X209864285Y-115452380D01*
X209864285Y-115642857D01*
X209816666Y-115738095D01*
X209721428Y-115785714D01*
X209626190Y-115785714D01*
X209530952Y-115309523D01*
X209245238Y-116166666D02*
X209197619Y-116261904D01*
X209197619Y-116452380D01*
X209245238Y-116547619D01*
X209340476Y-116595238D01*
X209388095Y-116595238D01*
X209483333Y-116547619D01*
X209530952Y-116452380D01*
X209530952Y-116309523D01*
X209578571Y-116214285D01*
X209673809Y-116166666D01*
X209721428Y-116166666D01*
X209816666Y-116214285D01*
X209864285Y-116309523D01*
X209864285Y-116452380D01*
X209816666Y-116547619D01*
X209245238Y-117452380D02*
X209197619Y-117357142D01*
X209197619Y-117166666D01*
X209245238Y-117071428D01*
X209292857Y-117023809D01*
X209388095Y-116976190D01*
X209673809Y-116976190D01*
X209769047Y-117023809D01*
X209816666Y-117071428D01*
X209864285Y-117166666D01*
X209864285Y-117357142D01*
X209816666Y-117452380D01*
X209245238Y-118261904D02*
X209197619Y-118166666D01*
X209197619Y-117976190D01*
X209245238Y-117880952D01*
X209340476Y-117833333D01*
X209721428Y-117833333D01*
X209816666Y-117880952D01*
X209864285Y-117976190D01*
X209864285Y-118166666D01*
X209816666Y-118261904D01*
X209721428Y-118309523D01*
X209626190Y-118309523D01*
X209530952Y-117833333D01*
X209864285Y-118738095D02*
X209197619Y-118738095D01*
X209769047Y-118738095D02*
X209816666Y-118785714D01*
X209864285Y-118880952D01*
X209864285Y-119023809D01*
X209816666Y-119119047D01*
X209721428Y-119166666D01*
X209197619Y-119166666D01*
X209864285Y-119500000D02*
X209864285Y-119880952D01*
X210197619Y-119642857D02*
X209340476Y-119642857D01*
X209245238Y-119690476D01*
X209197619Y-119785714D01*
X209197619Y-119880952D01*
D11*
G04 #@! TO.C,U1*
X196350000Y-108400000D02*
X200250000Y-108400000D01*
X200250000Y-113400000D02*
X198935000Y-113400000D01*
X197665000Y-113400000D02*
X196350000Y-113400000D01*
X199500000Y-108400000D02*
X199500000Y-113400000D01*
X196350000Y-112297000D02*
X196350000Y-112043000D01*
X196350000Y-111027000D02*
X196350000Y-110773000D01*
X196350000Y-109757000D02*
X196350000Y-109503000D01*
X200250000Y-112297000D02*
X200250000Y-112043000D01*
X200250000Y-111027000D02*
X200250000Y-110773000D01*
X200250000Y-109757000D02*
X200250000Y-109503000D01*
X198935000Y-113400000D02*
G75*
G03X197665000Y-113400000I-635000J0D01*
G01*
D12*
G04 #@! TO.C,C1*
X196223900Y-115447980D02*
X194776100Y-115447980D01*
X194776100Y-114752020D02*
X196223900Y-114752020D01*
D13*
X194100460Y-115897560D02*
X194100460Y-114302440D01*
X194100460Y-114302440D02*
X196899540Y-114302440D01*
X196899540Y-115897560D02*
X196899540Y-114302440D01*
X194100460Y-115897560D02*
X196899540Y-115897560D01*
X195949580Y-115498780D02*
X195949580Y-114701220D01*
X195949580Y-114701220D02*
X196297560Y-114701220D01*
X196297560Y-115498780D02*
X196297560Y-114701220D01*
X195949580Y-115498780D02*
X196297560Y-115498780D01*
X194702440Y-115498780D02*
X194702440Y-114701220D01*
X194702440Y-114701220D02*
X195050420Y-114701220D01*
X195050420Y-115498780D02*
X195050420Y-114701220D01*
X194702440Y-115498780D02*
X195050420Y-115498780D01*
D14*
G04 #@! TO.C,P1*
X190500000Y-111000000D02*
X190000000Y-111000000D01*
X190000000Y-111000000D02*
X190000000Y-115000000D01*
X190000000Y-115000000D02*
X190500000Y-115000000D01*
X190500000Y-113000000D02*
X190500000Y-117500000D01*
X190500000Y-117500000D02*
X187500000Y-117500000D01*
X187500000Y-117500000D02*
X187500000Y-108500000D01*
X187500000Y-108500000D02*
X190500000Y-108500000D01*
X190500000Y-108500000D02*
X190500000Y-113000000D01*
D13*
G04 #@! TO.C,R1*
X194502440Y-104998780D02*
X194850420Y-104998780D01*
X194850420Y-104998780D02*
X194850420Y-104201220D01*
X194502440Y-104201220D02*
X194850420Y-104201220D01*
X194502440Y-104998780D02*
X194502440Y-104201220D01*
X195749580Y-104998780D02*
X196097560Y-104998780D01*
X196097560Y-104998780D02*
X196097560Y-104201220D01*
X195749580Y-104201220D02*
X196097560Y-104201220D01*
X195749580Y-104998780D02*
X195749580Y-104201220D01*
X193900460Y-105397560D02*
X196699540Y-105397560D01*
X196699540Y-105397560D02*
X196699540Y-103802440D01*
X193900460Y-103802440D02*
X196699540Y-103802440D01*
X193900460Y-105397560D02*
X193900460Y-103802440D01*
D12*
X194576100Y-104252020D02*
X196023900Y-104252020D01*
X196023900Y-104947980D02*
X194576100Y-104947980D01*
D13*
G04 #@! TO.C,R2*
X194502440Y-106998780D02*
X194850420Y-106998780D01*
X194850420Y-106998780D02*
X194850420Y-106201220D01*
X194502440Y-106201220D02*
X194850420Y-106201220D01*
X194502440Y-106998780D02*
X194502440Y-106201220D01*
X195749580Y-106998780D02*
X196097560Y-106998780D01*
X196097560Y-106998780D02*
X196097560Y-106201220D01*
X195749580Y-106201220D02*
X196097560Y-106201220D01*
X195749580Y-106998780D02*
X195749580Y-106201220D01*
X193900460Y-107397560D02*
X196699540Y-107397560D01*
X196699540Y-107397560D02*
X196699540Y-105802440D01*
X193900460Y-105802440D02*
X196699540Y-105802440D01*
X193900460Y-107397560D02*
X193900460Y-105802440D01*
D12*
X194576100Y-106252020D02*
X196023900Y-106252020D01*
X196023900Y-106947980D02*
X194576100Y-106947980D01*
G04 #@! TO.C,R3*
X198776100Y-114752020D02*
X200223900Y-114752020D01*
X200223900Y-115447980D02*
X198776100Y-115447980D01*
D13*
X200899540Y-114302440D02*
X200899540Y-115897560D01*
X200899540Y-115897560D02*
X198100460Y-115897560D01*
X198100460Y-114302440D02*
X198100460Y-115897560D01*
X200899540Y-114302440D02*
X198100460Y-114302440D01*
X199050420Y-114701220D02*
X199050420Y-115498780D01*
X199050420Y-115498780D02*
X198702440Y-115498780D01*
X198702440Y-114701220D02*
X198702440Y-115498780D01*
X199050420Y-114701220D02*
X198702440Y-114701220D01*
X200297560Y-114701220D02*
X200297560Y-115498780D01*
X200297560Y-115498780D02*
X199949580Y-115498780D01*
X199949580Y-114701220D02*
X199949580Y-115498780D01*
X200297560Y-114701220D02*
X199949580Y-114701220D01*
G04 #@! TO.C,TP1*
X200846000Y-122954000D02*
X201354000Y-122954000D01*
X201354000Y-122954000D02*
X201354000Y-122446000D01*
X200846000Y-122446000D02*
X201354000Y-122446000D01*
X200846000Y-122954000D02*
X200846000Y-122446000D01*
D15*
X200465000Y-121430000D02*
X201735000Y-121430000D01*
X201735000Y-121430000D02*
X202370000Y-122065000D01*
X202370000Y-122065000D02*
X202370000Y-123335000D01*
X202370000Y-123335000D02*
X201735000Y-123970000D01*
X199830000Y-122065000D02*
X199830000Y-123335000D01*
X200465000Y-121430000D02*
X199830000Y-122065000D01*
X199830000Y-123335000D02*
X200465000Y-123970000D01*
X201735000Y-123970000D02*
X200465000Y-123970000D01*
G04 #@! TO.C,TP2*
X195635000Y-123970000D02*
X194365000Y-123970000D01*
X193730000Y-123335000D02*
X194365000Y-123970000D01*
X194365000Y-121430000D02*
X193730000Y-122065000D01*
X193730000Y-122065000D02*
X193730000Y-123335000D01*
X196270000Y-123335000D02*
X195635000Y-123970000D01*
X196270000Y-122065000D02*
X196270000Y-123335000D01*
X195635000Y-121430000D02*
X196270000Y-122065000D01*
X194365000Y-121430000D02*
X195635000Y-121430000D01*
D13*
X194746000Y-122954000D02*
X194746000Y-122446000D01*
X194746000Y-122446000D02*
X195254000Y-122446000D01*
X195254000Y-122954000D02*
X195254000Y-122446000D01*
X194746000Y-122954000D02*
X195254000Y-122954000D01*
G04 #@! TO.C,R4*
X194702440Y-120198780D02*
X195050420Y-120198780D01*
X195050420Y-120198780D02*
X195050420Y-119401220D01*
X194702440Y-119401220D02*
X195050420Y-119401220D01*
X194702440Y-120198780D02*
X194702440Y-119401220D01*
X195949580Y-120198780D02*
X196297560Y-120198780D01*
X196297560Y-120198780D02*
X196297560Y-119401220D01*
X195949580Y-119401220D02*
X196297560Y-119401220D01*
X195949580Y-120198780D02*
X195949580Y-119401220D01*
X194100460Y-120597560D02*
X196899540Y-120597560D01*
X196899540Y-120597560D02*
X196899540Y-119002440D01*
X194100460Y-119002440D02*
X196899540Y-119002440D01*
X194100460Y-120597560D02*
X194100460Y-119002440D01*
D12*
X194776100Y-119452020D02*
X196223900Y-119452020D01*
X196223900Y-120147980D02*
X194776100Y-120147980D01*
G04 #@! TO.C,R5*
X194776100Y-117652020D02*
X196223900Y-117652020D01*
X196223900Y-118347980D02*
X194776100Y-118347980D01*
D13*
X196899540Y-117202440D02*
X196899540Y-118797560D01*
X196899540Y-118797560D02*
X194100460Y-118797560D01*
X194100460Y-117202440D02*
X194100460Y-118797560D01*
X196899540Y-117202440D02*
X194100460Y-117202440D01*
X195050420Y-117601220D02*
X195050420Y-118398780D01*
X195050420Y-118398780D02*
X194702440Y-118398780D01*
X194702440Y-117601220D02*
X194702440Y-118398780D01*
X195050420Y-117601220D02*
X194702440Y-117601220D01*
X196297560Y-117601220D02*
X196297560Y-118398780D01*
X196297560Y-118398780D02*
X195949580Y-118398780D01*
X195949580Y-117601220D02*
X195949580Y-118398780D01*
X196297560Y-117601220D02*
X195949580Y-117601220D01*
G04 #@! TO.C,REF4*
D14*
X180952380Y-126452380D02*
X180619047Y-125976190D01*
X180380952Y-126452380D02*
X180380952Y-125452380D01*
X180761904Y-125452380D01*
X180857142Y-125500000D01*
X180904761Y-125547619D01*
X180952380Y-125642857D01*
X180952380Y-125785714D01*
X180904761Y-125880952D01*
X180857142Y-125928571D01*
X180761904Y-125976190D01*
X180380952Y-125976190D01*
X181380952Y-125928571D02*
X181714285Y-125928571D01*
X181857142Y-126452380D02*
X181380952Y-126452380D01*
X181380952Y-125452380D01*
X181857142Y-125452380D01*
X182619047Y-125928571D02*
X182285714Y-125928571D01*
X182285714Y-126452380D02*
X182285714Y-125452380D01*
X182761904Y-125452380D01*
X183571428Y-125785714D02*
X183571428Y-126452380D01*
X183333333Y-125404761D02*
X183095238Y-126119047D01*
X183714285Y-126119047D01*
G04 #@! TO.C,U1*
D11*
X199155095Y-105852380D02*
X199155095Y-106661904D01*
X199202714Y-106757142D01*
X199250333Y-106804761D01*
X199345571Y-106852380D01*
X199536047Y-106852380D01*
X199631285Y-106804761D01*
X199678904Y-106757142D01*
X199726523Y-106661904D01*
X199726523Y-105852380D01*
X200726523Y-106852380D02*
X200155095Y-106852380D01*
X200440809Y-106852380D02*
X200440809Y-105852380D01*
X200345571Y-105995238D01*
X200250333Y-106090476D01*
X200155095Y-106138095D01*
G04 #@! TO.C,REF1*
D14*
X180952380Y-99451880D02*
X180619047Y-98975690D01*
X180380952Y-99451880D02*
X180380952Y-98451880D01*
X180761904Y-98451880D01*
X180857142Y-98499500D01*
X180904761Y-98547119D01*
X180952380Y-98642357D01*
X180952380Y-98785214D01*
X180904761Y-98880452D01*
X180857142Y-98928071D01*
X180761904Y-98975690D01*
X180380952Y-98975690D01*
X181380952Y-98928071D02*
X181714285Y-98928071D01*
X181857142Y-99451880D02*
X181380952Y-99451880D01*
X181380952Y-98451880D01*
X181857142Y-98451880D01*
X182619047Y-98928071D02*
X182285714Y-98928071D01*
X182285714Y-99451880D02*
X182285714Y-98451880D01*
X182761904Y-98451880D01*
X183666666Y-99451880D02*
X183095238Y-99451880D01*
X183380952Y-99451880D02*
X183380952Y-98451880D01*
X183285714Y-98594738D01*
X183190476Y-98689976D01*
X183095238Y-98737595D01*
G04 #@! TO.C,C1*
D16*
X195330666Y-116962857D02*
X195282285Y-117011238D01*
X195137142Y-117059619D01*
X195040380Y-117059619D01*
X194895238Y-117011238D01*
X194798476Y-116914476D01*
X194750095Y-116817714D01*
X194701714Y-116624190D01*
X194701714Y-116479047D01*
X194750095Y-116285523D01*
X194798476Y-116188761D01*
X194895238Y-116092000D01*
X195040380Y-116043619D01*
X195137142Y-116043619D01*
X195282285Y-116092000D01*
X195330666Y-116140380D01*
X196298285Y-117059619D02*
X195717714Y-117059619D01*
X196008000Y-117059619D02*
X196008000Y-116043619D01*
X195911238Y-116188761D01*
X195814476Y-116285523D01*
X195717714Y-116333904D01*
G04 #@! TO.C,P1*
D14*
X188261904Y-119452380D02*
X188261904Y-118452380D01*
X188642857Y-118452380D01*
X188738095Y-118500000D01*
X188785714Y-118547619D01*
X188833333Y-118642857D01*
X188833333Y-118785714D01*
X188785714Y-118880952D01*
X188738095Y-118928571D01*
X188642857Y-118976190D01*
X188261904Y-118976190D01*
X189785714Y-119452380D02*
X189214285Y-119452380D01*
X189500000Y-119452380D02*
X189500000Y-118452380D01*
X189404761Y-118595238D01*
X189309523Y-118690476D01*
X189214285Y-118738095D01*
X191857142Y-115690476D02*
X191904761Y-115738095D01*
X191952380Y-115880952D01*
X191952380Y-115976190D01*
X191904761Y-116119047D01*
X191809523Y-116214285D01*
X191714285Y-116261904D01*
X191523809Y-116309523D01*
X191380952Y-116309523D01*
X191190476Y-116261904D01*
X191095238Y-116214285D01*
X191000000Y-116119047D01*
X190952380Y-115976190D01*
X190952380Y-115880952D01*
X191000000Y-115738095D01*
X191047619Y-115690476D01*
X191952380Y-114261904D02*
X190952380Y-114261904D01*
X190952380Y-114023809D01*
X191000000Y-113880952D01*
X191095238Y-113785714D01*
X191190476Y-113738095D01*
X191380952Y-113690476D01*
X191523809Y-113690476D01*
X191714285Y-113738095D01*
X191809523Y-113785714D01*
X191904761Y-113880952D01*
X191952380Y-114023809D01*
X191952380Y-114261904D01*
X190952380Y-112333333D02*
X191952380Y-112000000D01*
X190952380Y-111666666D01*
X191000000Y-109738095D02*
X190952380Y-109833333D01*
X190952380Y-109976190D01*
X191000000Y-110119047D01*
X191095238Y-110214285D01*
X191190476Y-110261904D01*
X191380952Y-110309523D01*
X191523809Y-110309523D01*
X191714285Y-110261904D01*
X191809523Y-110214285D01*
X191904761Y-110119047D01*
X191952380Y-109976190D01*
X191952380Y-109880952D01*
X191904761Y-109738095D01*
X191857142Y-109690476D01*
X191523809Y-109690476D01*
X191523809Y-109880952D01*
G04 #@! TO.C,R1*
D16*
X197630666Y-105059619D02*
X197292000Y-104575809D01*
X197050095Y-105059619D02*
X197050095Y-104043619D01*
X197437142Y-104043619D01*
X197533904Y-104092000D01*
X197582285Y-104140380D01*
X197630666Y-104237142D01*
X197630666Y-104382285D01*
X197582285Y-104479047D01*
X197533904Y-104527428D01*
X197437142Y-104575809D01*
X197050095Y-104575809D01*
X198598285Y-105059619D02*
X198017714Y-105059619D01*
X198308000Y-105059619D02*
X198308000Y-104043619D01*
X198211238Y-104188761D01*
X198114476Y-104285523D01*
X198017714Y-104333904D01*
G04 #@! TO.C,R2*
X197630666Y-107059619D02*
X197292000Y-106575809D01*
X197050095Y-107059619D02*
X197050095Y-106043619D01*
X197437142Y-106043619D01*
X197533904Y-106092000D01*
X197582285Y-106140380D01*
X197630666Y-106237142D01*
X197630666Y-106382285D01*
X197582285Y-106479047D01*
X197533904Y-106527428D01*
X197437142Y-106575809D01*
X197050095Y-106575809D01*
X198017714Y-106140380D02*
X198066095Y-106092000D01*
X198162857Y-106043619D01*
X198404761Y-106043619D01*
X198501523Y-106092000D01*
X198549904Y-106140380D01*
X198598285Y-106237142D01*
X198598285Y-106333904D01*
X198549904Y-106479047D01*
X197969333Y-107059619D01*
X198598285Y-107059619D01*
G04 #@! TO.C,R3*
X199330666Y-117059619D02*
X198992000Y-116575809D01*
X198750095Y-117059619D02*
X198750095Y-116043619D01*
X199137142Y-116043619D01*
X199233904Y-116092000D01*
X199282285Y-116140380D01*
X199330666Y-116237142D01*
X199330666Y-116382285D01*
X199282285Y-116479047D01*
X199233904Y-116527428D01*
X199137142Y-116575809D01*
X198750095Y-116575809D01*
X199669333Y-116043619D02*
X200298285Y-116043619D01*
X199959619Y-116430666D01*
X200104761Y-116430666D01*
X200201523Y-116479047D01*
X200249904Y-116527428D01*
X200298285Y-116624190D01*
X200298285Y-116866095D01*
X200249904Y-116962857D01*
X200201523Y-117011238D01*
X200104761Y-117059619D01*
X199814476Y-117059619D01*
X199717714Y-117011238D01*
X199669333Y-116962857D01*
G04 #@! TO.C,R4*
X197730666Y-120259619D02*
X197392000Y-119775809D01*
X197150095Y-120259619D02*
X197150095Y-119243619D01*
X197537142Y-119243619D01*
X197633904Y-119292000D01*
X197682285Y-119340380D01*
X197730666Y-119437142D01*
X197730666Y-119582285D01*
X197682285Y-119679047D01*
X197633904Y-119727428D01*
X197537142Y-119775809D01*
X197150095Y-119775809D01*
X198601523Y-119582285D02*
X198601523Y-120259619D01*
X198359619Y-119195238D02*
X198117714Y-119920952D01*
X198746666Y-119920952D01*
G04 #@! TO.C,R5*
X197730666Y-118459619D02*
X197392000Y-117975809D01*
X197150095Y-118459619D02*
X197150095Y-117443619D01*
X197537142Y-117443619D01*
X197633904Y-117492000D01*
X197682285Y-117540380D01*
X197730666Y-117637142D01*
X197730666Y-117782285D01*
X197682285Y-117879047D01*
X197633904Y-117927428D01*
X197537142Y-117975809D01*
X197150095Y-117975809D01*
X198649904Y-117443619D02*
X198166095Y-117443619D01*
X198117714Y-117927428D01*
X198166095Y-117879047D01*
X198262857Y-117830666D01*
X198504761Y-117830666D01*
X198601523Y-117879047D01*
X198649904Y-117927428D01*
X198698285Y-118024190D01*
X198698285Y-118266095D01*
X198649904Y-118362857D01*
X198601523Y-118411238D01*
X198504761Y-118459619D01*
X198262857Y-118459619D01*
X198166095Y-118411238D01*
X198117714Y-118362857D01*
X193566576Y-117319159D02*
X193227909Y-116835349D01*
X192986004Y-117319159D02*
X192986004Y-116303159D01*
X193373052Y-116303159D01*
X193469814Y-116351540D01*
X193518195Y-116399920D01*
X193566576Y-116496682D01*
X193566576Y-116641825D01*
X193518195Y-116738587D01*
X193469814Y-116786968D01*
X193373052Y-116835349D01*
X192986004Y-116835349D01*
G04 #@! TD*
M02*
